<?xml version="1.0" standalone="no"?>
<!DOCTYPE svg PUBLIC "-//W3C//DTD SVG 1.1//EN" "http://www.w3.org/Graphics/SVG/1.1/DTD/svg11.dtd" >
<svg xmlns="http://www.w3.org/2000/svg">
<metadata>
Created by FontForge 20120731 at Mon Feb 22 13:43:19 2016
 By Ads
</metadata>
<defs>
<font id="iconfont" horiz-adv-x="1024" >
  <font-face 
    font-family="iconfont"
    font-weight="500"
    font-stretch="normal"
    units-per-em="1024"
    panose-1="2 0 6 3 0 0 0 0 0 0"
    ascent="896"
    descent="-128"
    x-height="792"
    bbox="-1.09091 -213 1220 896"
    underline-thickness="50"
    underline-position="-100"
    unicode-range="U+0078-E62A"
  />
<missing-glyph horiz-adv-x="374" 
d="M34 0v682h272v-682h-272zM68 34h204v614h-204v-614z" />
    <glyph glyph-name=".notdef" horiz-adv-x="374" 
d="M34 0v682h272v-682h-272zM68 34h204v614h-204v-614z" />
    <glyph glyph-name=".null" horiz-adv-x="0" 
 />
    <glyph glyph-name="nonmarkingreturn" horiz-adv-x="341" 
 />
    <glyph glyph-name="x" unicode="x" horiz-adv-x="1001" 
d="M281 543q-27 -1 -53 -1h-83q-18 0 -36.5 -6t-32.5 -18.5t-23 -32t-9 -45.5v-76h912v41q0 16 -0.5 30t-0.5 18q0 13 -5 29t-17 29.5t-31.5 22.5t-49.5 9h-133v-97h-438v97zM955 310v-52q0 -23 0.5 -52t0.5 -58t-10.5 -47.5t-26 -30t-33 -16t-31.5 -4.5q-14 -1 -29.5 -0.5
t-29.5 0.5h-32l-45 128h-439l-44 -128h-29h-34q-20 0 -45 1q-25 0 -41 9.5t-25.5 23t-13.5 29.5t-4 30v167h911zM163 247q-12 0 -21 -8.5t-9 -21.5t9 -21.5t21 -8.5q13 0 22 8.5t9 21.5t-9 21.5t-22 8.5zM316 123q-8 -26 -14 -48q-5 -19 -10.5 -37t-7.5 -25t-3 -15t1 -14.5
t9.5 -10.5t21.5 -4h37h67h81h80h64h36q23 0 34 12t2 38q-5 13 -9.5 30.5t-9.5 34.5q-5 19 -11 39h-368zM336 498v228q0 11 2.5 23t10 21.5t20.5 15.5t34 6h188q31 0 51.5 -14.5t20.5 -52.5v-227h-327z" />
    <glyph glyph-name="uniE600" unicode="&#xe600;" horiz-adv-x="1122" 
d="M560 590q-10 0 -20 -2t-18.5 -5.5t-16.5 -9t-14.5 -12t-12 -14.5t-9.5 -17t-6 -18.5t-2 -19.5q0 -41 29 -70t70 -29q8 0 16 1.5t15 4t14 6t13 8t11.5 10t10 11.5t8 12.5t6 14t3.5 15.5t1 16q0 41 -29 69.5t-69 28.5zM560 701q-86 0 -159.5 -42.5t-115.5 -115.5t-42 -159
q0 -58 19.5 -110.5t55.5 -94.5q30 72 95.5 116.5t146 44.5t146.5 -44.5t96 -116.5q75 89 75 205q0 131 -93 224t-224 93zM560 361q-55 0 -93.5 38t-38.5 93q0 35 18 65.5t48 48t66 17.5q54 0 92.5 -38.5t38.5 -92.5q0 -36 -17.5 -66t-48 -47.5t-65.5 -17.5zM559.5 307
q-74.5 0 -133.5 -43t-83 -111q91 -86 217 -86q62 0 117.5 22.5t99.5 63.5q-24 68 -83.5 111t-134 43zM646 896h-171q-163 0 -285 -110q-118 -106 -138 -263q-3 -27 -3 -54v-170q0 -116 57 -214.5t155 -155.5t214 -57h171q116 0 214 57t155.5 155.5t57.5 214.5v170
q0 116 -57.5 214.5t-155.5 155.5t-214 57zM560 34q-95 0 -176 47t-127.5 127.5t-46.5 175.5t46.5 175.5t127.5 127.5t176 47t175.5 -47t127.5 -127.5t47 -175.5t-47 -175.5t-127.5 -127.5t-175.5 -47z" />
    <glyph glyph-name="uniE601" unicode="&#xe601;" horiz-adv-x="1123" 
d="M578 612l-209 -258l148 -120l209 258zM561.5 700q-130.5 0 -223.5 -93t-93 -223.5t93 -223t223.5 -92.5t223 92.5t92.5 223t-92.5 223.5t-223 93zM724 343v68h33v-168h-33v68h-27h-76l-79 -97q-8 -10 -21 -11.5t-24 6.5l-9 8l-33 -37q-9 -10 -22 -11t-23 7l-77 62
q-11 9 -12 22t8 24l32 36l-12 9q-10 8 -11.5 21.5t6.5 23.5l209 258q8 10 21.5 11.5t23.5 -7.5l148 -119q10 -9 11.5 -22t-6.5 -24l-104 -127h77v-1zM353 263l77 -62h1l32 36l-78 63zM646 896h-170q-116 0 -214.5 -57t-155.5 -155.5t-57 -214.5v-170q0 -116 57 -214.5
t155.5 -155.5t214.5 -57h170q69 0 134.5 21.5t118 61t92 92t61 117.5t21.5 135v170q0 87 -34 166t-91 136t-136 91t-166 34zM561 34q-95 0 -175.5 46.5t-127.5 127.5t-47 176q0 71 28 136t74.5 111.5t111.5 74.5t136 28q48 0 93.5 -12.5t83.5 -35t70.5 -55t55 -71t35 -84
t12.5 -92.5q0 -142 -98 -243q-97 -101 -237 -107h-15z" />
    <glyph glyph-name="uniE602" unicode="&#xe602;" horiz-adv-x="1123" 
d="M48 469q0 116 57 214.5t155.5 155.5t214.5 57h170q116 0 214.5 -57t155.5 -155.5t57 -214.5v-170q0 -116 -57 -214.5t-155.5 -155.5t-214.5 -57h-170q-87 0 -166 34t-136 91t-91 136t-34 166v170zM696 403h-474v-34h475l-135 -135l24 -25l156 156q9 9 9 20.5t-9 20.5
l-156 156l-24 -25zM275 542q42 74 115.5 117t158.5 43q65 0 123.5 -25t101 -67.5t67.5 -101t25 -123t-25 -123t-67.5 -101t-101 -67.5t-123.5 -25q-35 0 -69 7.5t-64.5 22t-58 35t-49.5 47t-38 57.5l-31 -16q45 -86 128.5 -136.5t181.5 -50.5q96 0 176.5 47t127.5 127.5
t47 176t-47 176t-127.5 127.5t-176.5 47q-95 0 -176 -47.5t-128 -129.5z" />
    <glyph glyph-name="uniE603" unicode="&#xe603;" horiz-adv-x="1123" 
d="M563 701q-131 0 -223.5 -92.5t-92.5 -222.5q0 -101 58 -183q51 -71 130 -106q61 -27 128 -27q131 0 223.5 92.5t92.5 222.5q0 86 -42.5 159t-115 115t-158.5 42zM710 157h-232q-4 0 -7 2.5t-3 6.5q0 2 1 4t2 3t3 2t4 1h232q4 0 7 -3t3 -7q0 -9 -10 -9zM765 525l-45 -60
l-11 -14l-10 -13l-171 -224l-3 -4l-6 -2l-111 -33l-25 -7l3 25l11 110v5l3 4l162 212l18 23l10 14l47 61q7 10 19 11.5t21 -5.5l83 -64q9 -7 11 -18.5t-6 -20.5zM618 541l75 -57l43 55l-76 58q2 -2 -42 -56zM431 293l-8 -78l82 24l166 220l-74 54zM668 896h-213
q-33 0 -66 -5.5t-62.5 -15.5t-58 -24.5t-53.5 -33t-47 -40.5t-40.5 -47t-33 -53t-24.5 -58t-15.5 -62.5t-5.5 -65.5v-214q0 -110 54.5 -203.5t148 -147.5t203.5 -54h213q110 0 203.5 54.5t147.5 147.5t54 203v214q0 110 -54 203.5t-147.5 147.5t-203.5 54zM563 35
q-75 0 -142 31q-88 39 -144 117q-64 91 -64 203q0 71 27.5 135.5t74.5 111.5t112 75t136 28t136 -28t111.5 -75t74.5 -111.5t28 -135.5q0 -96 -47 -176.5t-127.5 -127.5t-175.5 -47z" />
    <glyph glyph-name="uniE604" unicode="&#xe604;" horiz-adv-x="1287" 
d="M1082 627h-8q-5 0 -9.5 1t-8.5 2l-8 2q-4 1 -8 3l-474 -467l-5 5l-5 -5l-159 158l-133 -131l-59 59l188 184l4 -4l4 4l160 -158l420 413q-9 20 -9 41q0 45 32.5 76.5t77.5 31.5t77.5 -31.5t32.5 -76.5q0 -22 -9 -41.5t-23.5 -34t-35 -23t-42.5 -8.5zM1164 -128h-1041
q-23 0 -39 16t-16 38v916q0 11 4 21t11.5 17t17.5 11.5t22 4.5h630v-81h-576q-5 0 -10 -2t-9 -5.5t-6 -8.5t-2 -11v-808q0 -11 8 -19t19 -8h932q12 0 20 8t8 19v512h82v-566q0 -22 -16 -38t-39 -16z" />
    <glyph glyph-name="uniE605" unicode="&#xe605;" horiz-adv-x="1286" 
d="M1108 -50h-931q-8 0 -18 6.5t-10 18.5v825q0 4 2 7.5t5.5 6.5t8.5 5t10 2l201 1v-409l154 120l154 -120v409h423q4 0 7 -1t6 -2.5t5.5 -4t4.5 -5.5t3 -7t1 -8q-1 -803 1 -818q0 -6 -4.5 -12t-11 -10t-11.5 -4zM126 896q-14 0 -21 -1t-17.5 -5.5t-15.5 -17t-5 -32.5v-911
q0 -15 6 -26.5t16 -18t19.5 -9.5t17.5 -3h1031q31 0 46 20t15 37v911q0 27 -16.5 41.5t-44.5 14.5h-1031z" />
    <glyph glyph-name="uniE606" unicode="&#xe606;" horiz-adv-x="1287" 
d="M1161 896h-1037q-15 0 -28.5 -7.5t-21 -20.5t-7.5 -29v-910q0 -24 16.5 -40.5t40.5 -16.5h1037q24 0 40.5 16.5t16.5 40.5v910q0 24 -16.5 40.5t-40.5 16.5zM1132 811v-854h-979v854h979zM608 484v-71h-68v-71h68v-71h68v71h67v71h-67v71h-68zM850 408q0 -35 -9 -67
t-32 -69t-64.5 -77.5t-102.5 -85.5q-117 86 -162.5 156.5t-45.5 142.5v132q31 0 64 9.5t57.5 23t45 27t30.5 23.5l11 9q2 -2 6 -5t16 -13t25 -18.5t32.5 -19t39 -18t43.5 -13t46 -5.5v-132zM674 713q-13 13 -32 13t-33 -13q-2 -3 -11.5 -11t-31.5 -23t-46 -28t-57 -22.5
t-63 -9.5q-21 0 -35 -15t-14 -36v-154q0 -104 62.5 -196.5t200.5 -193.5l6 -4l8 -2q3 -2 6.5 -2.5t7.5 -0.5q15 0 28 9q138 101 200.5 193.5t62.5 196.5v154q0 10 -4 19.5t-10.5 16t-15.5 11t-19 4.5q-48 0 -101.5 24.5t-78 43.5t-30.5 26z" />
    <glyph glyph-name="uniE607" unicode="&#xe607;" horiz-adv-x="1290" 
d="M205 185h56v-85h-56v85zM289 185h55v-85h-55v85zM372 185h55v-85h-55v85zM1165 896h-1043q-23 0 -39 -16.5t-16 -40.5v-910q0 -24 16 -40.5t39 -16.5h1043q23 0 39 16.5t16 40.5v910q0 16 -7.5 29t-20 20.5t-27.5 7.5zM1137 -42h-982v369h982v-369zM1137 612h-982v199
h982v-199z" />
    <glyph glyph-name="uniE608" unicode="&#xe608;" 
d="M835 364h-646q-25 0 -43 -18.5t-18 -45.5t18 -45.5t43 -18.5h646q25 0 43 18.5t18 45.5t-18 45.5t-43 18.5zM835 620h-646q-25 0 -43 -18.5t-18 -45.5t18 -45.5t43 -18.5h646q25 0 43 18.5t18 45.5t-18 45.5t-43 18.5zM835 108h-646q-25 0 -43 -18.5t-18 -45.5t18 -45.5
t43 -18.5h646q25 0 43 18.5t18 45.5t-18 45.5t-43 18.5z" />
    <glyph glyph-name="uniE609" unicode="&#xe609;" horiz-adv-x="1123" 
d="M561 700q-131 0 -224 -92.5t-93 -223.5q0 -101 59 -183q50 -71 129 -106q61 -27 129 -27q131 0 223.5 92.5t92.5 223.5t-92.5 223.5t-223.5 92.5zM750 244q-6 -36 -55 -36h-50q-30 0 -41 12q-5 6 -8 15.5t-3 23.5v122q-57 -2 -70 -3q-1 -32 -7.5 -57t-18.5 -43
q-15 -26 -43.5 -45.5t-69.5 -33.5q-4 7 -9 14t-11 15q79 25 106 69q20 30 22 80q-12 -1 -23 -1.5t-22 -1.5q-4 0 -9 -0.5t-10.5 -2t-12.5 -3.5l-16 34q21 5 37 19q38 36 73 80h-137v29h186q-14 25 -26 41l28 16q15 -19 30 -45l-21 -12h182v-29h-199q-37 -44 -89 -95
q30 1 58 1.5t52 1t45.5 1t39.5 1.5q-21 25 -45 52l23 17q20 -20 37.5 -39t32.5 -36t27 -33l-27 -20q-13 16 -25 32q-4 -1 -24.5 -1.5t-31.5 -0.5v-118q0 -17 5 -22l2 -2q1 -1 2.5 -2t3 -1.5t3.5 -1t5 -0.5h5h37q7 0 12 1t8.5 3.5t6 6.5t2.5 9q3 16 5 51q13 -5 35 -11
q-3 -29 -7 -51zM647 896h-171q-115 0 -213.5 -57t-155.5 -155.5t-57 -214.5v-170q0 -116 57 -214.5t155.5 -155.5t213.5 -57h171q87 0 166 34t136 91t91 136t34 166v170q0 87 -34 166t-91 136t-136 91t-166 34zM561 33q-75 0 -143 30q-88 39 -143 118q-65 91 -65 203
q0 71 28 136t74.5 112t111.5 74.5t136.5 27.5t136.5 -27.5t112 -74.5t74.5 -112t27.5 -136q0 -95 -46.5 -176t-127.5 -128t-176 -47z" />
    <glyph glyph-name="uniE60A" unicode="&#xe60a;" 
d="M905 659q-56 2 -154 38.5t-171 72t-70 35.5h-4q-11 -6 -29.5 -15.5t-70.5 -34t-98 -43.5t-100 -35t-90 -18q-6 -31 -0.5 -124t30.5 -210t65 -176q27 -40 91 -82.5t113.5 -65.5t87.5 -38l1 -1q1 0 3.5 -0.5t5.5 1.5q221 83 295 186q27 42 47.5 104.5t31 124t15.5 121.5
t4.5 101.5t-3.5 58.5zM669 410zM647 408h-110v-52h110v-43h-110v-98h-53v98h-109v43h109v52h-109v43h89l-58 103h57l48 -91q0 2 5.5 12.5t12 23t13.5 25.5t12 21l5 9h57l-59 -103h90v-43z" />
    <glyph glyph-name="uniE60B" unicode="&#xe60b;" 
d="M512 896q-139 0 -257 -68.5t-186.5 -186.5t-68.5 -257t68.5 -257t186.5 -186.5t257 -68.5t257 68.5t186.5 186.5t68.5 257t-68.5 257t-186.5 186.5t-257 68.5zM472 70q-67 84 -140 145t-129 82l174 108l84 -168q3 8 8.5 20.5t24 50t38.5 73.5t52 84t65.5 87.5t77 78
t87.5 61.5q-1 -18 -4 -47t-4.5 -48t-1.5 -44.5t5 -49.5t16 -49q-71 -16 -206 -176q-99 -117 -147 -208zM377 405z" />
    <glyph glyph-name="uniE60C" unicode="&#xe60c;" 
d="M512 745q-121 0 -223.5 -57.5t-162 -158t-59.5 -221.5q0 -91 35 -174.5t94.5 -144.5t142.5 -97.5t173 -36.5q61 0 118.5 16t106.5 44.5t90 69.5t69.5 90t44.5 106.5t16 118.5q0 91 -35 173.5t-94.5 142t-142 94.5t-173.5 35zM512 -52q-97 0 -178.5 47t-128.5 128.5
t-47 178t47 178t128.5 128.5t178.5 47q72 0 137.5 -28t113 -75t75.5 -112.5t28 -137.5q0 -33 -6 -64t-16.5 -60t-26 -55.5t-35 -49.5t-42.5 -42.5t-49.5 -34.5t-55 -26t-60 -16.5t-63.5 -5.5zM278 344h471v-87h-471v87z" />
    <glyph glyph-name="uniE60D" unicode="&#xe60d;" 
d="M557 537h-88v-193h-193v-88h193v-193h88v193h194v88h-194v193zM512 748q-122 0 -225 -57.5t-163 -159t-60 -223.5q0 -91 35.5 -175.5t95.5 -146t143 -98t174 -36.5t174 35.5t143 95.5t95.5 143t35.5 174t-35.5 174t-95.5 143t-143 95.5t-174 35.5zM512 -55
q-73 0 -139 28.5t-113.5 76t-76 113.5t-28.5 139q0 96 48 178.5t130 130t179 47.5q72 0 138 -28.5t114 -76t76 -113.5t28 -138q0 -144 -99 -247q-98 -103 -240 -109q-9 -1 -17 -1z" />
    <glyph glyph-name="uniE60E" unicode="&#xe60e;" horiz-adv-x="1123" 
d="M561 700q-131 0 -224 -92.5t-93 -223.5q0 -101 59 -183q50 -71 129 -106q61 -27 129 -27q131 0 223.5 92.5t92.5 223.5t-92.5 223.5t-223.5 92.5zM657 271h-77v-80q0 -8 -5 -13.5t-14 -5.5t-15.5 6t-6.5 14l1 79h-76q-13 0 -19.5 5t-6.5 14t6.5 14.5t19.5 5.5l76 -1v71
h-76q-26 0 -26 20q0 19 26 19h77l-96 114q-4 5 -5 10t0.5 10.5t5.5 9.5q2 2 5.5 3.5t7 1.5t6.5 -0.5t6.5 -2t5.5 -4.5l85 -106l87 102q14 16 30 5q7 -5 7 -13.5t-6 -14.5l-99 -115h78q13 0 19.5 -5t6.5 -15q0 -5 -1.5 -8.5t-5 -6t-8 -3.5t-11.5 -1h-78v-70l77 -1
q27 0 27 -19t-28 -19zM647 896h-171q-115 0 -213.5 -57t-155.5 -155.5t-57 -214.5v-170q0 -116 57 -214.5t155.5 -155.5t213.5 -57h171q87 0 166 34t136 91t91 136t34 166v170q0 87 -34 166t-91 136t-136 91t-166 34zM561 33q-75 0 -143 30q-88 39 -143 118q-65 91 -65 203
q0 71 28 136t74.5 112t111.5 74.5t136.5 27.5t136.5 -27.5t112 -74.5t74.5 -112t27.5 -136q0 -95 -46.5 -176t-127.5 -128t-176 -47z" />
    <glyph glyph-name="uniE60F" unicode="&#xe60f;" 
d="M599 743v-105q2 1 5 1.5t12 1.5t17 0.5t17.5 -4.5t16.5 -11.5t11 -22t4 -34.5l3 -256l-122 -69l3 168q0 11 -5.5 20t-15.5 13.5t-21.5 6.5t-23 0t-21.5 -6.5t-15.5 -13.5t-5.5 -20l3 -168l-122 74l3 251q-1 27 7.5 44t20.5 22t24.5 6t21.5 -1l9 -2v105h174zM0 9l91 52
l-7 7q-4 4 -11 17t-7.5 25.5t9.5 28.5t34 28l221 131l120 -71l-147 -81q-14 -8 -17.5 -23t2.5 -30t16.5 -28t24.5 -16.5t28 3.5l144 86l-4 -142l-218 -123q-23 -14 -42 -15.5t-29.5 6.5t-17.5 19t-9.5 18.5t-2.5 8.5l-91 -52zM937 -141l-91 53q-1 -4 -2.5 -9.5t-9.5 -18
t-18 -19.5t-29 -6t-42 15l-223 126l1 140l144 -87q14 -7 28 -3.5t24.5 17t16.5 28t2.5 30t-17.5 22.5l-147 82l125 67l216 -127q24 -13 34.5 -28.5t8.5 -29t-7 -24.5t-11 -18l-7 -6l91 -53z" />
    <glyph glyph-name="uniE610" unicode="&#xe610;" 
d="M7 521h226l36 -4q11 -4 15 -8h-42v-13l65 -1l1 -1q1 0 2 -2l4 -2l2 -4t1 -4l-75 -1v-12h83q1 0 2.5 -1t4 -5t1.5 -9h-259v-14l263 1q1 -10 1 -14h-264v-13l265 1q2 -9 -2 -14l-263 -3v-12l259 1q0 -10 -7 -14l-252 -1v-12l244 1q-1 -13 -10 -15l-234 -1v-13l215 2
q-1 -2 -2.5 -4.5t-11 -6.5t-24.5 -4l-40 1v-12l65 -1q28 0 32 -11l-97 -2v-12h113q2 -1 3.5 -2.5t4.5 -5t3 -5.5l-261 -2v-14l267 2q10 -7 10 -14l-277 -2v-12h281q0 -1 0.5 -1.5t1.5 -3.5t0 -6l-283 -3v-12h283q2 -7 0 -13l-283 -1v-13h280q3 -8 -4 -15h-276v-13l271 1
q-1 -13 -7 -14h-96v-13h83q0 -1 -1.5 -3t-4 -6t-5.5 -5l-72 -1v-14l49 1q-1 -1 -4 -3.5t-21 -6.5t-46 -3l-213 1v441zM375 234v4q0 2 0.5 8t2 12.5t6 14t10.5 13.5t17 11.5t25 7.5q5 1 13.5 2.5t30 1.5t38.5 -4t31.5 -17.5t15.5 -34.5l2 -145l8 -25l-64 -2l-4 23
q-4 -4 -11 -9.5t-29 -12t-45 -0.5q-2 0 -6 0.5t-13.5 4.5t-17 10.5t-13.5 19.5t-6 31q-1 2 -0.5 4.5t2 10.5t5 15t11 14t18.5 11q63 18 82 18q2 0 4.5 1t8 4t7.5 6.5t-0.5 10.5t-13.5 15q-2 1 -5.5 1.5t-12.5 0.5t-16.5 -1.5t-13.5 -7.5t-6 -16zM586 302h62l-1 -24l10 10
q6 6 22 14.5t27 7.5q3 0 7.5 0.5t16.5 -1.5t22 -7.5t19.5 -19.5t13.5 -36l1 -164h-60l-1 148q-1 2 -2.5 4.5t-6.5 8.5t-11.5 9t-17 2t-22.5 -9q-3 0 -6 -3t-7.5 -17.5t-3.5 -36.5l1 -106l-61 1zM808 391l56 -1l4 -167l68 89h70l-64 -88l77 -140l-71 -2l-49 90l-30 -40l1 -49
h-60zM506 187q-1 -23 0 -28q-8 -23 -28 -27q-4 -3 -11 -6t-20.5 -2t-19.5 14q-6 18 13 25l16 5q15 4 31.5 10t18.5 9z" />
    <glyph glyph-name="uniE611" unicode="&#xe611;" 
d="M506 509l100 -54l-95 -58l-100 50zM511 573l223 -124l-100 -62q5 0 14 -1.5t36.5 -6.5t54 -11.5t62 -18.5t65 -26t58.5 -34.5t48 -44.5q3 -4 7 -11t12 -29.5t10 -44.5t-6 -52t-29 -56t-66 -54t-110 -48q-8 -2 -22 -5t-57.5 -10t-87 -11.5t-105 -6t-117 3.5t-117.5 19.5
t-112 39t-95 66t-72 96.5l144 5q5 -9 14 -23t41 -49t69 -60.5t98 -43t127 -9.5q6 0 14.5 0.5t37.5 3.5t54 8t62 14t63 21.5t57 31t43 42t22 54.5t-7 68q-1 2 -3 5.5t-10.5 14t-18.5 20.5t-28 24t-38 25.5t-49 23.5t-60.5 20.5t-73.5 13.5t-88 4l-175 99zM405 158l100 56
l101 -56l-105 -55zM524 688q71 -5 133.5 -15.5t138 -34.5t132.5 -70.5t84 -110.5h-154q-13 57 -64.5 101t-120.5 67t-149 27.5t-151.5 -10.5t-127.5 -54t-76 -96q-11 -33 -3 -65.5t33 -63t57.5 -53.5t70.5 -36.5t71 -12.5q8 0 28 3t34 4t36 -2l201 -107l-201 -118
q-23 13 -220 125q32 19 101 59q-51 6 -104.5 19.5t-105 36.5t-90 52t-58 69t-10.5 84q9 47 40.5 83.5t75.5 57.5t97.5 36.5t107 20t104.5 7t90 -2.5z" />
    <glyph glyph-name="uniE612" unicode="&#xe612;" 
d="M511 375q-13 -25 -26.5 -50.5t-28 -50.5t-29.5 -49t-31 -48v0q-167 -10 -310 -49q104 113 185 254t126 287h1q39 -144 113 -294zM396 177q115 7 229 0q23 -35 47 -67.5t49 -63.5t51.5 -59.5t52.5 -55.5q-150 34 -313 34.5t-313 -33.5v1l3 3l3 3l4 4l3 3l3 3l3 4l4 3l3 4
l3 3l4 4l3 3l3 4l3 3l3 4l4 3l3 4l3 3l3 4l4 4l3 3l3 4l3 4l3 3l3 4q64 76 120 160zM625 177q-63 95 -114 198q75 151 112 294q47 -147 129 -289t186 -253q-145 39 -313 50zM625 177q168 -11 313 -50l-113 -196q-106 105 -200 246zM396 177q-93 -140 -197 -244l-113 195
q143 39 310 49zM623 669q-37 -144 -112 -294q-74 150 -113 294h225z" />
    <glyph glyph-name="uniE613" unicode="&#xe613;" 
d="M279 594l1 2l4 2t4.5 2.5t6.5 1.5q-3 -8 -13 -11q9 -1 12 -7q-7 -6 -15 3q5 -9 -5 -15q-1 0 -1.5 1t-0.5 4.5t2 8.5l-2 -2q-2 -2 -6 -4.5t-7 -1.5q0 6 13 11q-10 -1 -12 6q5 6 15 -2q-6 10 3 18q6 -6 1 -17zM449 432q16 -6 9 -12l-3 -2q-6 2 -12 6q3 -11 2 -12
q-3 -3 -9 3q-1 1 -4 8q-1 -2 -6.5 -4t-9.5 1q0 3 2 4.5t5.5 3t4.5 1.5q-7 -2 -15 6q-2 2 2 4q8 3 17 -4q0 1 -2 4t-2 4t2 5l3 1q3 0 6 -3q4 -3 3 -9l7 5q7 3 8 -2q0 -2 -2 -4zM240 360q-3 -1 2 -13h-2h-4h-5q1 1 1.5 3t0 6t-2.5 6q-7 3 -19 -1t-14 -3q4 1 10 7t10 6
q2 0 7 -2.5t6 -2.5q0 6 1 7q1 -1 3 -4l2 -3h2q3 1 7 1.5t8 0.5q5 -1 9.5 -7t4.5 -11q-5 5 -11.5 8t-10 3t-5.5 -1zM663 422q8 -7 16.5 -10t14.5 -4t11 -6q0 6 -12 21q18 -8 21 -12t0 -13q-2 -3 1.5 -3t9 0.5t10.5 -3.5q-2 0 -4 -0.5t-3.5 -1.5t-4 -2.5t-4.5 -2.5
q-8 -4 -18.5 -3.5t-13.5 -4.5l-3 7q0 1 15 8l-3 1q-2 1 -5.5 1.5t-8 2t-8.5 4.5t-7 8.5t-4 12.5zM844 367q0 9 2 14h-1q-12 0 -10 -5q0 -2 4 -4t5 -5zM574 471h-4q-3 0 -6 1h-4q-3 1 -5 2q12 -10 9 -16q2 2 5 6.5t5 6.5zM556 454q-10 -4 -16 4q5 2 6 8q1 -3 2 -5t2 -3
t2.5 -2t3.5 -2zM532 467l2 3q-1 -1 -4 -2zM250 401q-8 10 -2 13q2 1 4 -1t3 -4t2 -5q3 10 5 10q2 1 3 -0.5t1.5 -2.5t1 -3t-0.5 -7q4 1 10 -2q3 -2 3 -4q-1 -2 -2 -2t-3.5 1t-7.5 -1q4 0 6.5 -5t-1 -7t-6.5 1t-5 8q3 -9 -4 -10q-2 0 -4 1.5t-2 4.5v2q0 2 0.5 3.5t1.5 2.5
q-7 -2 -11 4q-3 4 2 4zM554 398q-6 1 -13.5 -2.5t-11.5 -8.5l-5 -5q1 7 2 10.5t2 4.5l1 3q2 3 7.5 4t10 1t4.5 2l-1 7l6 -3q3 -1 6.5 6t7.5 8q2 1 8 0t7.5 -1.5t6.5 -1.5q-12 -2 -20.5 -8t-6.5 -12l3 -2q1 -2 3 -3l1 -1l-14 -9v3l-2 4q0 3 -2 4zM520 419q1 -2 3 -1t0 3
q0 1 -1 1t-2 1l-4 5l3 4l7 -2v-1q1 -1 2 -1.5t2 0t1 1.5l-2 2l-1 -1q-1 0 -2 1l-6 2v3v2l6 2q1 0 2 -0.5t2 -0.5q2 1 1 3q0 1 -1 1h-2l-0.5 -1t-1.5 -1l-6 -2q-1 2 -3 4l4 5q0 1 1 1t2 1t0 3l-3 -1q-1 -1 -1 -2v-1l-4 -6q-2 2 -5 2v7l1 1l1 2q0 1 -0.5 1.5t-1.5 0.5
q-2 0 -2 -2q0 -1 1 -2l1 -1v-7q-3 0 -5 -2l-4 6q-1 0 0 1q0 2 -1 2q-1 2 -3 1t0 -3q1 -1 2 -1t1 -1l4 -5q-2 -2 -3 -4l-6 2l-1 1l-2 2q-2 1 -2.5 -1.5t1.5 -2.5q1 0 2 0.5t1 -0.5l7 -2v-1v-1v-3l-7 -2l-1 1h-2q-2 -1 -1.5 -3t2.5 -1q1 0 1 1l1 1l7 3q1 -3 3 -4l-4 -6l-2 -1
l-1 -1q-2 -1 0 -2.5t3 0.5v2v1l5 6q1 -1 2 -1t2 -1v-7v-1l-2 -2q0 -1 0.5 -1.5t1.5 -0.5q3 0 2 2v2l-1 1v7l5 2l4 -6v-1v-2zM373 397q-1 1 0 2q0 1 -1 2l-5 5q-2 -1 -5 -1v-7v-2l2 -1q-2 -2 -3 -2q-2 1 -2 2t1 1.5t1 1.5v7l-6 2l-5 -6v-1q0 -2 -0.5 -2.5t-1.5 -1t-2 0.5
q-2 1 0 3q1 1 2 1h2l5 6q-3 2 -4 4l-8 -2q-1 0 -1.5 -1t-1.5 -1q-2 -2 -3 0.5t2 2.5q1 1 2 0.5t2 -0.5l8 2v1v1v3l-8 2q-1 0 -2 -0.5t-2 -0.5q-3 1 -2 3l4 1l1 -1l1 -1l9 -3q1 3 3 4l-5 6q0 1 -1.5 1t-2.5 1q-2 1 1 3h2q1 0 1.5 -1t0 -2t0.5 -1l5 -6q2 1 5 1v7v2l-2 1
q0 1 1 2t2 0.5t1.5 -1t0.5 -1.5t-1 -1.5t-1 -1.5v-7l6 -1l5 5v2v2q1 0 2 0.5t2 -0.5q2 -1 0 -3l-2 -1h-1l-5 -6q1 0 2 -1.5t1 -2.5l8 2l1 1l2 2q2 1 3 -2l-2 -2q-1 0 -2 0.5t-2 0.5l-8 -3q1 -1 1 -2t-1 -3l8 -2q1 0 2 0.5t2 0.5q3 0 2 -3q0 -1 -1 -1h-2q-1 0 -2 1t-1 2l-8 2
q-1 -3 -4 -4l5 -6q1 0 2 -0.5t2 -0.5q1 -1 0.5 -2t-1.5 -1q-2 -2 -3 0zM324 381q14 -5 7 -9q-1 -1 -2 -1q-4 1 -9 4q2 -8 2 -9q-3 -1 -4 -0.5t-4 2.5l-2 6q-2 -1 -6 -2.5t-7 0.5q0 2 1.5 3.5t4 2.5t3.5 1q-5 -1 -11 5q-2 1 1 3q6 2 13 -3l-1 2q-2 3 -2 4t2 4l2 1q3 0 5 -2
v-1q3 -2 2 -6l6 3q4 2 5 -1q2 -2 -1 -3zM777 525q1 5 4 7.5t5 0.5q3 -2 0.5 -5t-7.5 -5q13 5 12 -2q-1 -8 -12 -1q4 -3 4.5 -7t-2.5 -5q-2 0 -3.5 1t-2 3.5t-0.5 6.5q-1 -5 -4 -7.5t-5 -1.5t-2 2.5t2 3.5t7 5q-4 -2 -7 -2t-4 1t-1 3q1 7 12 1q-2 2 -3 5.5t2 5.5q2 0 3.5 -1
t2 -3t-0.5 -6zM903 399q3 4 7 5.5t7 1t4 -2.5q5 -6 -6 -7q-5 -1 -9 -1q7 -1 12 -4t2 -7q-1 -1 -3 -1.5t-4.5 0t-5 3t-4.5 6.5q3 -7 1.5 -12t-6.5 -4q-11 2 -1 17q-11 -13 -18 -5q-7 7 7 8q4 1 8 1q-5 0 -9 2t-5.5 4.5t-0.5 3.5q2 2 5 2t6.5 -2.5t6.5 -6.5q-2 4 -1 9.5t7 4.5
q2 0 3.5 -2t0.5 -5.5t-4 -7.5zM865 458q2 6 6 9t7 1t0 -6t-9 -7q5 3 10 2t5 -5q-1 -2 -3 -3.5t-5.5 -1t-7.5 3.5q5 -4 5.5 -9t-3 -6t-5.5 2.5t-2 10.5q-1 -6 -5 -9t-6.5 -2t-2.5 3t2.5 5t8.5 6q-4 -2 -8 -2t-5.5 1.5t-1.5 3.5q1 3 5.5 3.5t10.5 -2.5q-4 3 -5 7.5t4 6.5
q2 1 3.5 -0.5t2.5 -4.5t-1 -7zM694 525q6 7 14 8.5t10 -2.5q4 -6 -3.5 -9.5t-17.5 -2.5q10 -1 16 -5.5t2 -9.5q-3 -5 -10 -2.5t-13 12.5q4 -10 1.5 -17t-8.5 -6t-6 7.5t6 16.5q-7 -8 -15 -10t-10 2q-2 3 -1 6t7 5.5t16 1.5q-8 1 -13 3.5t-6.5 5.5t0.5 6q1 2 3 2.5t4.5 0
t5.5 -2t5.5 -4t4.5 -5.5q-1 4 -1.5 8.5t2.5 8.5t7 3q4 0 5.5 -3t0 -8t-5.5 -10zM538 634q1 5 4.5 7.5t6.5 1.5q9 -4 -5 -10h-2q3 1 6.5 1t6 -1.5t2.5 -3.5t-2 -3t-6 0t-8 3q4 -2 5.5 -5t1 -5t-2.5 -2q-4 -1 -6.5 2t-1.5 9q-1 -4 -3 -6.5t-4 -3t-4 0.5q-10 4 4 10q2 0 3 1
q-5 -1 -8 -1t-5 1t-2 2.5t2.5 2.5t6 0.5t7.5 -2.5q-4 3 -5.5 7t2.5 5q3 1 5.5 -2t1.5 -9zM409 575q0 3 -3 6t-7 5.5t-9.5 5t-9.5 2.5q6 3 10.5 4t6.5 0h2q5 -1 10 -8.5t7 -7.5q2 1 3.5 2t2.5 2l1 1l-1 -8q0 -2 4 -2h10q6 0 8 -3q1 0 1.5 -0.5t1.5 -2.5l2 -4q1 -2 2 -6t1 -9
q-4 7 -11 11.5t-13 6t-10 -0.5q-2 -3 -1 -10q-6 6 -16 9h1q6 4 7 7zM479 512q2 6 6 10.5t7.5 6t7.5 -0.5q11 -5 -8 -15q-3 -2 -7 -4q9 3 17.5 2t7.5 -7t-8.5 -6.5t-18.5 5.5q6 -5 8.5 -9.5t1.5 -8t-5.5 -5t-7.5 0.5t-4.5 7t-0.5 12q-2 -9 -8.5 -14t-10.5 -3q-13 5 4 16l10 5
q-8 -3 -14 -3t-9 2t-3 5q1 3 5 4.5t10 1t12 -3.5q-2 2 -4.5 5t-3 6t0.5 6t5 4q6 2 9.5 -3.5t0.5 -15.5zM354 521q-8 10 1 11q4 1 4.5 -3t-1.5 -8q2 4 6 5.5t7 -0.5q4 -5 -6 -7l-5 -1q4 0 7.5 -1.5t4.5 -3t0 -3.5t-5.5 -1t-8.5 6q6 -9 0 -12q-5 -1 -6 2t2 10q-8 -11 -13 -5
q-1 1 0 2.5t4 3t6 2.5q-4 0 -8 2t-2 5q1 2 5 1t8 -5zM223 495q1 5 3.5 7.5t4.5 0.5q3 -2 1 -5t-6 -5q11 4 11 -3q0 -4 -3.5 -4t-8.5 3q4 -3 5 -7t-2 -5t-4.5 2t-1.5 9q-1 -5 -3.5 -7.5t-4.5 -1.5t-2.5 2.5t1.5 4t6 4.5q-5 -2 -8.5 -1t-3 4t4 3t7.5 -2q-2 2 -3.5 6t2.5 6
q4 1 5 -5v-6zM152 478q0 6 3 9t6 2q6 -5 -6 -12q14 6 15 -2q0 -2 -1.5 -3.5t-5 -1t-8.5 2.5q4 -2 6 -5t2 -5t-2 -3q-3 -2 -6 1t-3 10q0 -6 -3 -9t-5.5 -2t-3.5 2.5t1 4.5t7 6q-14 -7 -15 1q0 3 4.5 4t10.5 -1q-2 1 -4 3.5t-2.5 5t2.5 3.5q1 1 3 0t3.5 -4t1.5 -7zM225 451
q4 8 10 11.5t10 0.5q10 -7 -8 -14l-7 -2q9 2 16.5 -0.5t6.5 -7.5q-1 -2 -2.5 -3.5t-3.5 -1.5t-5 0.5t-6.5 2t-7.5 4.5q7 -7 8 -13.5t-5 -7.5q-4 -1 -6.5 1.5t-3.5 7t0 11.5q-3 -9 -8.5 -12.5t-9.5 -0.5q-12 7 5 14q4 2 9 3q-8 -1 -13 -0.5t-8 3t-2 4.5q1 5 8.5 4.5
t15.5 -5.5q-3 2 -5 6.5t-1 8.5t6 5t7.5 -4.5t-0.5 -14.5zM139 377q-5 0 -12.5 -9t-9.5 -18q-2 6 -2.5 11t-0.5 6l1 2q0 2 3.5 4.5t7 4t6 3.5t2.5 3l-4 8l7 -3q2 0 2.5 2t1 4.5t0.5 5.5t1.5 5.5t3.5 4.5l2 1q1 1 7 2.5t13 0.5q-10 -4 -17 -14.5t-3 -16.5l9 -2q-7 -5 -11 -14
l-4 8q-2 1 -3 1zM596 548q-1 0 -3.5 -0.5t-6.5 -1.5t-7.5 -2.5t-5.5 -2.5l-3 -1l6 13q2 3 10 3l9 -1v6l5 -3q1 0 5.5 5t8.5 5q0 -1 1 -1t3 -1t3.5 -2t4 -2t4.5 -1q-25 -3 -24 -11l4 -7l-13 -4q1 6 -1 9zM812 534q9 -11 20.5 -15t16.5 -9q0 2 -0.5 5t-2 5.5t-2.5 4.5t-2.5 4
t-1.5 3q15 -10 18 -14.5t-1 -13.5q-1 -2 -0.5 -2.5t3.5 -0.5h5q3 0 6 -1t5 -4q-3 0 -4.5 -0.5t-5 -2.5t-5.5 -3q-8 -3 -17.5 -1.5t-12.5 -2.5l-3 7q14 2 15 6q0 2 -4.5 3.5t-10 3.5t-11 9.5t-5.5 18.5zM382 520q-3 5 -6 8t-5.5 3t-4.5 -2q-3 -4 2 -8.5t10 -4.5
q-7 0 -12 -3.5t-3 -7.5q5 -8 15 3l3 3q-4 -6 -4.5 -10.5t1.5 -6.5t5 -2t4.5 2.5t1 6.5t-2.5 9q11 -17 17 -9q3 4 -1.5 8t-12.5 6q6 -1 10 1t5 4t0 5q-1 2 -2.5 2.5t-3.5 0.5t-4 -2l-4 -2q-2 -2 -3 -4q2 3 3 6t1 6t-1.5 4.5t-4.5 1.5q-1 0 -2.5 -1t-2 -2.5t-1 -4t0 -5
t2.5 -5.5zM611 468q-11 17 -25 15q-2 0 -3.5 -1t-2.5 -2l-2 -2q-2 9 -24 4q2 2 3.5 4.5t2.5 5.5t1 5.5t-0.5 4.5t-2.5 3q-4 1 -8 -5t-5 -15q-2 7 -5 11.5t-6.5 6t-6.5 -0.5q-4 -2 -1.5 -9.5t8.5 -11.5q-8 1 -13.5 0t-8.5 -5q-4 -5 2 -9q-4 1 -6.5 -0.5t-3.5 -3.5q-7 1 -8 -5
q-1 -2 -1 -3q0 -5 -2 -6q-2 1 -3 3q5 11 3 21q-16 -7 -14 -29q0 -2 -1 -3t-2 0v3q2 16 -9 29q0 -1 -1 -3l-1 -1q-1 2 -2.5 3t-3.5 2q2 -6 1 -16t3 -16q-7 2 -10 11t-7 12q0 -5 -5 -6.5t-8 0.5q6 1 8 5q-1 2 -4 3l-6 2q6 1 9 6q-4 0 -4.5 3t2.5 5q-2 1 -4 0.5t-3 -1.5
q1 2 1 5q-2 -1 -4 -3q1 1 1 3v3l-2 -2l-2 -2q-1 -1 -2 -3v6q-6 -2 -8 -12l-2 6q-1 -1 -2 -3t-2 -5q-1 5 -2 5q-2 -5 -1.5 -10t4.5 -10q0 -1 2 -2l2 -3q1 -1 1 -2q1 -3 -1 -5.5t-4.5 -4t-5.5 -2.5t-5 -2h-2q10 10 10 21q-7 -2 -12 -8l1 4q1 2 2 6t0 6q-3 -2 -5 -4t-3 -3.5
t-2 -3.5q-1 6 -3 9q-2 2 -4.5 3.5t-5.5 1.5t-6 -1t-6 -4t-4 -8q-1 2 -4.5 3.5t-4.5 1.5q0 -7 5 -16q-2 4 -5.5 6.5t-5.5 3.5t-3 1q1 -9 9 -17q-9 6 -14.5 4t-6.5 -8q-1 13 -9 18q-14 -18 -2 -30q-2 -9 -9 -6q-4 3 -2 7q4 5 -2 7q-5 1 -11 -3q7 6 3 11q-6 6 -10 -2
q-1 -3 -1 -7q-2 9 -9 9q-8 -1 -6 -8q2 -4 7 -7q-14 5 -15 -4q-1 -8 11 -7q1 1 4 1q-2 -1 -3 -3.5t-1 -5t2 -3.5q3 -2 6 1.5t3 7.5q1 -5 5 -6.5t9 0.5q6 2 7 -4q0 -7 -12 -2q3 -10 -4 -12.5t-11 4.5q-2 2 -7 4t-10 3l-4 1q1 -4 -2.5 -10.5t-8.5 -9t-8 0.5q-2 2 -1 4l2 4l1 2
q6 7 -7 9q-11 0 -13 -7q-5 2 -11 0q3 2 5.5 8t-1.5 8q-1 1 -3 0.5t-3.5 -2t-2.5 -3t-2 -3.5l-2 -4q0 7 -3.5 12t-7.5 3q-3 -2 -1.5 -8t5.5 -9q-6 3 -11.5 2.5t-6.5 -4.5q-1 -3 2 -5t7.5 -2t7.5 1q-3 -4 -4.5 -8t-1 -7t3.5 -4q9 -3 12 12q0 -2 0.5 -4.5t2.5 -3.5
q-8 -11 -11 -12q-3 -2 -6 -3t-5 -1.5t-4 -1.5t-3 -2t-1 -3q0 -3 3.5 -3.5t8 1.5t8.5 6q9 8 13 -1q3 -9 -5 -14q-3 -1 -11 1q-1 0 -2 1q-12 3 -11 -5q2 -7 11 -12l326 -227l304 216q3 2 5 4t6 4l19 -2l-4 11q4 6 12 8t28 -3l-11 15q-5 2 -8 1.5t-8 -1.5l-7 -3q-1 2 -2.5 2.5
t-3.5 0.5l-4 5q-1 -3 -5 -7q-8 -3 -16.5 -3t-7.5 7q1 10 13 8q9 -1 14 3q1 0 2 0.5t1 1.5q3 -6 8 -4q3 1 4 3.5t1 5.5t-1 7q2 -5 9 -10t9 -1q1 1 0.5 2.5t-1.5 3.5t-2.5 4t-4 3.5t-5.5 2.5h2q1 0 4 1t5 1.5t3.5 2.5t1.5 4q-2 5 -9 3.5t-10 -3.5q2 4 2 11t-4 7q-5 1 -6.5 -5
t-0.5 -12q-3 7 -9 11t-9 1q-2 -3 -0.5 -6.5t5 -6.5t6.5 -4q-7 -1 -16 -7t-16 -5q13 9 6 18q-2 2 -5.5 2t-7 -3t-6.5 -9q0 6 -2.5 8.5t-5.5 0.5t-3 -7v-4h1q12 0 0 -16l-5 -5q7 6 14 8.5t9 -2.5q1 -3 -1.5 -6t-8 -5t-12.5 -1q9 -2 12.5 -7t-1.5 -9q-4 -4 -9 -1t-8 12
q1 -9 -2.5 -15t-8.5 -6q-13 -1 -2 15l7 7q-4 -3 -7.5 -5t-6 -3t-5 -1.5t-3.5 0.5t-2 3q-1 4 6 8t17 4q-7 0 -11 5.5t1 10.5q4 4 9.5 1t5.5 -13q0 8 3 14q8 14 4 24q-2 4 -5.5 6.5t-6.5 2t-4 -0.5q-5 -2 -10 -7q-3 -3 -3 0q-1 1 -1 4q-1 4 0.5 6t3.5 2.5t5.5 0.5t4.5 1l2 -6
q6 4 12 3t12.5 -3t18.5 1q3 1 8.5 3.5t6.5 2.5h7q-2 4 -6.5 6t-8.5 2.5t-7.5 1t-4 1t0.5 4.5q7 11 3.5 17.5t-23.5 22.5q11 -24 10 -32q-6 9 -21.5 16t-27.5 24q0 -10 2 -17.5t5.5 -12.5t7.5 -9t8.5 -6t8 -3.5t5.5 -2.5t2 -2q-2 -5 -16 -7q0 2 -1 5q-6 13 -18 17
q-15 3 -24.5 -9t-25.5 -7q-6 4 -4 10q1 2 6 2t6 2l-2 2q-1 2 -4 3q5 1 6 3q-4 0 -4 2q4 2 4 3q-1 5 -8 7q3 3 1 5.5t-5 1.5q-1 0 -7 -3t-10 -2q12 6 17 18q-7 1 -6 5q0 3 4 3q-7 0 -15 -10t-11 -10q6 14 6 26q-11 -4 -14 -21q0 -3 -2 -4q-2 2 -3 4q-1 4 -2.5 7.5t-3 5.5
t-2.5 3l-2 2q-5 -5 -4 -16q-5 11 -10 13q-5 -5 -7.5 -11.5t-2.5 -9.5v-4q6 9 12 6q10 -5 -7 -14l-4 -1q7 2 13.5 1t6 -5.5t-6.5 -5t-14 4.5q4 -3 6 -7t1 -6.5t-4 -3.5q-5 -2 -7.5 2.5t-1.5 12.5q-2 -5 -5 -8.5t-5.5 -4.5t-5.5 0q-11 4 6 13l5 3q-6 -2 -10.5 -2t-7 1t-1.5 4
q0 2 3 3.5t8 1t10 -2.5q-3 1 -5 4.5t-1.5 6.5t3.5 5zM539 541q0 -2 -2 -5t-5 -5l-3 -1l21 -10q-1 9 2 13q9 11 43 -15l-11 26q-5 5 -16 4.5t-13 0.5l-1 9l-8 -7l-4 4q-3 3 -6 6.5t-7 6t-7 2.5q-1 0 -1.5 -0.5t-2.5 -1.5l-6 -2q-2 -1 -6 -2.5t-7 -1.5q35 -9 40 -21zM689 580
q13 6 14 -1q1 -4 -3.5 -4.5t-10.5 2.5q4 -2 6 -4.5t2.5 -4.5t-0.5 -3q-3 -2 -6.5 0.5t-4.5 8.5q0 -5 -2.5 -8.5t-5.5 -2t-2 5.5t6 7q-3 -2 -6.5 -2t-5.5 0.5t-2 2.5q-1 2 0 3.5t4.5 1.5t9.5 -2q-12 7 -8 12q2 1 4 0t4 -3.5t3 -6.5q0 2 1 5t3 4.5t4 0.5t2.5 -3t-1 -4.5
t-5.5 -4.5zM250 508q5 -15 16.5 -21t19.5 -5.5t8 -1t-2 -2.5l-2 -4l-4 -2l-4 -2l-1 -1l5 -6q3 4 7.5 5.5t11 2.5t11.5 6q3 2 5.5 5t4.5 4.5t5 1.5q-3 2 -7 2.5t-7 -0.5t-5.5 -2t-3.5 -0.5t0 3.5q1 10 -3.5 14t-24.5 9q16 -14 17 -20q-5 3 -10 4t-9.5 0.5t-12 1.5t-15.5 8z
M512 -7q0 -18 -8.5 -31t-25.5 -13q-12 0 -20.5 6.5t-12 16t-3.5 21.5q0 18 9 30.5t27 12.5q17 0 25.5 -13t8.5 -30zM430 -59h11v20h1q4 -11 14 -17t22 -6q23 0 35 15.5t12 39.5q0 15 -5 27t-16 19.5t-26 7.5q-27 0 -35 -23h-1v59h-12v-142zM610 -19q0 -13 -10 -22t-26 -9
q-3 0 -6 0.5t-5.5 1.5t-4.5 2.5t-3.5 4t-2.5 5t-1 5.5q0 15 8.5 20.5t27.5 8.5q3 0 4 1q16 2 18 6zM545 29q17 7 38 7q25 0 25 -15q0 -5 -6.5 -7.5t-25.5 -5.5q-39 -6 -39 -36q0 -11 5 -18.5t13 -11.5t18 -4q25 0 37 21v-18h12v73q0 19 -10.5 26t-27.5 7q-24 0 -39 -7v-11z
M204 -59h23v61q0 4 1 8.5t3.5 7.5t5.5 5.5t7 4t8 1.5q20 0 20 -23v-65h23v71q0 11 -4.5 19t-12.5 12t-20 4q-20 0 -31 -13v49h-23v-142zM318 26h56l-57 -69v-16h91v18h-60l57 69v16h-87v-18zM643 -59h12v60q0 16 9 25.5t23 9.5q15 0 20.5 -8t5.5 -23v-64h13v66q0 40 -38 40
q-25 0 -32 -21h-1v18h-12v-103zM745 -59h13v39l20 17l41 -56h16l-47 65l44 38h-17l-57 -50v89h-13v-142z" />
    <glyph glyph-name="uniE614" unicode="&#xe614;" 
d="M480 -84q32 -6 63 -6q101 0 184 50.5t134 136.5q56 136 2 204q-6 7 -37 39q-15 14 -36.5 24.5t-50.5 14.5q55 -8 84 -38t22 -52q-55 -243 -256 -304q-100 -30 -204 -9q-49 9 -94 30q81 -72 189 -90zM627 611q-74 3 -141 -26t-119 -81l193 -202q17 24 40 42t50.5 27.5
t57.5 9.5q76 0 118 -41q4 -5 7 -8l11 -10q7 -8 12 -13.5t7 -8.5q22 -27 25 -67.5t-6 -75t-26 -72.5q59 92 69 206q4 36 -4.5 77t-31 83.5t-56.5 77t-87.5 57.5t-118.5 25zM579 684q-7 2 -15 3t-15.5 1.5t-15.5 1t-16 0.5h-1q-101 0 -184 -50.5t-134 -136.5q-56 -136 -3 -203
q10 -13 38 -40q14 -14 35 -24t48 -15q-53 9 -81 38.5t-21 51.5q55 243 256 304q99 30 204 9l12 -2q6 -1 12 -3t12 -3.5t12 -3.5l12 -4q6 -2 11.5 -4t11 -4.5t11.5 -5.5q-40 35 -88 58.5t-101 31.5zM432 -11q74 -3 141 26t119 81l-194 202q-25 -37 -64 -58t-83 -21
q-77 0 -118 41l-11 10q-7 8 -15.5 17t-11.5 13q-56 70 7 215q-14 -23 -25.5 -47t-20 -50t-14.5 -53t-8 -56q-4 -36 4.5 -77t31 -83.5t56.5 -77t87.5 -57.5t118.5 -25z" />
    <glyph glyph-name="uniE615" unicode="&#xe615;" 
d="M887 70q42 50 44 71l-3 9q-5 4 -17 -16l-5 -10q2 2 1 13t-12 2q-9 -11 -23 -26.5t-45.5 -43t-46.5 -29.5q-5 -3 -14.5 -7.5t-38.5 -14.5t-57 -13.5t-66 1.5t-71 23.5t-67 60t-57 103.5q-1 3 -2.5 8.5t-4.5 22.5t-4 34.5t2.5 42t11 47.5t24 49t40.5 48q163 149 339 19
q6 7 15.5 16.5t30 23.5t30.5 9q0 -1 2 0.5t4.5 4t4.5 6.5t2 8.5t-3 9.5l-29 38q-5 -1 -13 -1.5t-28 -0.5t-35 3.5t-27 15t-11 29.5v3q0 2 -1 6.5t-3 8.5t-7.5 8t-13 6.5t-21 2t-30.5 -4.5l-2 2l-6 6q-3 3 -5.5 6.5t-4.5 8t-1 7.5l-3 8q-14 16 -83 5q-3 -1 -8 -1.5t-22 -6
t-35 -12.5t-44.5 -22t-53 -33.5t-58.5 -47.5t-62 -63l-41 -29q-99 -59 -108 17q-1 7 -1 15q-2 -2 -4.5 -5t-10.5 -13t-14 -20t-12 -24.5t-8.5 -28t0 -29.5t11.5 -29q2 -3 6 -7.5t17.5 -13.5t29 -13t40.5 0.5t52 20.5q-1 -10 -2 -26t2 -62.5t13 -88t38.5 -91t70.5 -83.5
q3 -3 9.5 -8t26.5 -19.5t41 -26.5t53.5 -25t64 -20t71 -6.5t76.5 10.5q6 2 16.5 5t40.5 17t55.5 32.5t54 54t44.5 78.5l-7 -7t-17 -13t-15 -5zM545 168h253v193l-253 -2v-191zM545 168z" />
    <glyph glyph-name="uniE616" unicode="&#xe616;" horiz-adv-x="1060" 
d="M1036 123q-18 -15 -39.5 -27.5t-56.5 -24.5t-71 -14.5t-82.5 9.5t-92.5 40q-53 34 -109 49t-96.5 14t-79 -11t-56 -18t-29.5 -16v399h334v-346q6 -3 12 -7l12 -6l12 -8q147 -92 292 -15v382l-289 289h-408l-289 -289v-389q0 -20 13 -34q2 -1 26.5 -27t57 -60t66 -69.5
t59.5 -62.5t31 -33q9 -10 22.5 -10t20 2.5t17.5 8.5q42 21 87.5 30.5t81 8t71 -9.5t56 -16t37.5 -17q4 -1 8 -3l8 -4q4 -2 8.5 -4t8.5 -4q60 -30 121.5 -38.5t106 1t80.5 25t54.5 28t18.5 13.5v253q0 17 -6 19t-18 -8z" />
    <glyph glyph-name="uniE617" unicode="&#xe617;" 
d="M884 438q-5 0 -5 5v19q0 5 5 5h128q5 0 5 -5v-19q0 -5 -5 -5h-128zM876 377q-5 0 -5 5v19q0 5 5 5h143q5 0 5 -5v-19q-2 -4 -5 -5h-25v-82q0 -7 -5.5 -12.5t-12.5 -5.5h-70q-5 0 -5 5v17q0 5 5 5h53v73h-83zM785 352l-3 2v2l39 48q4 4 7 4h30q1 0 1.5 -0.5t0.5 -1.5v-3
l-32 -39h14v-82q0 -5 -4 -5h-25q-5 0 -5 5v70h-23zM785 413q-3 1 -3 2v2l39 48q3 4 7 4h30q2 0 2 -2q0 -1 -1 -3l-39 -49q-1 -1 -2 -1.5t-3 -0.5h-30zM725 350q3 4 6 4h23q3 -1 4 -3l-2 -3l-30 -35l2 -3q2 -5 3 -6l2 -2q2 -2 9 -2h13q4 0 4 -5v-13q0 -5 -4 -5h-19
q-5 0 -9 0.5t-7 1.5t-6 3t-5 4t-4 5l-33 58q-1 1 -1 3t2 2h25q4 0 7 -5l8 -14zM656 403v-17h70v17h-70zM726 443h-70v-17h70v17zM656 300h23q5 0 5 -5v-13q0 -5 -5 -5h-35q-3 0 -6.5 1.5t-6 4t-4 6t-1.5 6.5v154q0 8 5.5 13t12.5 5h93q5 0 9.5 -2.5t7 -6.5t2.5 -9v-68
q0 -7 -5.5 -12.5t-13.5 -5.5h-81v-63zM580 362h28q5 0 5 -5v-16q0 -5 -5 -5h-28v-36h22q4 -2 5 -5v-13q0 -2 -1.5 -3.5t-3.5 -1.5h-35q-5 0 -9 2.5t-6.5 6.5t-2.5 9v41h-23q-5 0 -5 5v16q0 5 5 5h23v20h-23q-5 0 -5 5v16q0 5 5 5h82q5 0 5 -5v-16q-1 -3 -5 -5h-28v-20z
M608 453q5 0 5 -5v-16q0 -4 -5 -4h-53l-3 -7q-4 -4 -7 -4h-25q-2 0 -3 0.5t-1 1t1 2.5l25 44q2 4 5 4h27q3 0 3 -2v-2l-7 -12h38zM331 366q0 -7 1 -10t3.5 -5t10.5 -6l28 -13l29 13q8 4 10.5 6t3.5 5t1 10v10h-87v-10zM356 471q0 3 1.5 4t3.5 1h27q2 0 3.5 -1t1.5 -4v-9h76
q18 -5 22 -23v-13q0 -5 -5 -5h-18q-4 0 -4 5v12h-179v-12q0 -5 -5 -5h-18q-2 0 -3.5 1.5t-1.5 3.5v13q0 5 2 9t5 7t7.5 5t8.5 2h76v9zM260 376q-2 0 -3.5 1t-1.5 3v17q0 2 1.5 3.5t3.5 1.5h37v16q0 5 5 5h24q2 0 3.5 -1.5t1.5 -3.5v-16h87v16q0 2 1.5 3.5t3.5 1.5h24
q5 0 5 -5v-16h35q2 0 3.5 -1.5t1.5 -3.5v-17q0 -4 -5 -4h-35v-10q0 -9 -1.5 -14.5t-5.5 -10.5t-10.5 -9t-17.5 -9l-11 -5l2 -1q11 -4 19.5 -6.5t17.5 -1.5h38q2 0 3 -1.5t1 -3.5v-17q0 -5 -4 -5h-38q-24 0 -51 13l-20 9l-19 -9q-18 -8 -27 -10t-25 -3h-37q-5 0 -5 5v17
q2 3 5 5h37q6 0 12.5 1t13 3t12.5 4l2 1l-11 5q-22 10 -28.5 18t-6.5 25v10h-37zM186 424h26q2 0 3 -0.5t1 -2.5l-2 -3l-27 -53q-2 -5 -9 -5h-27q-1 0 -2 0.5t-1 1.5t1 4l28 53q1 2 2 3t2.5 1.5t4.5 0.5zM85 366l1 -4q0 -2 -3 -2h-27q-4 0 -5.5 1t-3.5 4l-27 53l-1 3
q0 3 3 3h27q6 0 8 -5zM5 317q-2 0 -3.5 1.5t-1.5 3.5v17q0 2 1.5 3.5t3.5 1.5h94v95h-87q-2 0 -3.5 2t-1.5 4v16q0 5 5 5h210q3 -2 4 -5v-17q0 -2 -1 -3.5t-3 -1.5h-86v-95h94q4 -1 5 -5v-17q0 -2 -1.5 -3.5t-3.5 -1.5h-94v-36q0 -5 -5 -5h-28q-4 0 -4 5v36h-94zM626 206
q2 7 8 8h33q15 0 23 -8q2 -2 3.5 -4t2 -5t0.5 -6q0 -7 -3.5 -12t-9.5 -8q18 -6 18 -22q0 -25 -33 -25h-34q-8 0 -8 8v74zM664 176q7 0 11.5 3t4.5 9v1q0 11 -15 11h-23v-24h22zM668 138q17 0 17 13q0 12 -18 12h-25v-25h26zM714 135l33 74q2 3 4.5 4.5t5.5 1.5h1
q2 0 3.5 -0.5t3 -2t2.5 -3.5l33 -74q1 -1 1 -2v-2q-1 -6 -7 -7q-3 0 -5 1.5t-3 3.5l-7 17h-44l-7 -17q-2 -5 -8 -5q-7 0 -7 7v1q0 1 1 3zM773 160l-16 36l-16 -36h32zM818 207q0 8 8 8h2q4 0 8 -5l45 -58v55q0 3 2.5 5.5t5.5 2.5q8 0 8 -8v-75q-2 -7 -8 -8h-1q-4 0 -8 5
l-46 59v-57q0 -7 -8 -7t-8 7v76zM920 207q1 7 8 8q8 0 8 -8v-38l42 43q3 3 7 3q3 0 5 -2.5t2 -5.5t-3 -5l-28 -27l31 -38q2 -3 2 -6q0 -7 -8 -7q-4 0 -7 3l-29 37l-14 -14v-19q0 -7 -8 -7t-8 7v76zM247 215h-13q-3 0 -3 -2v-62q-1 2 -5 6t-8.5 9.5t-10 12t-11 12.5t-10 11
t-7.5 8t-3 4q-1 1 -4 1h-13q-2 0 -2 -2v-86q0 -2 2 -2h13q1 0 1.5 0.5t0.5 1.5v63q3 -3 16.5 -18.5t26.5 -29.5l13 -15l4 -2h13q2 0 2 2v86q0 2 -2 2zM326 216h-32q-12 0 -21 -8t-9 -19v-38q0 -11 9 -19t21 -8h32q12 0 21 8t9 19v25h-47v-13q0 -2 2 -2h26v-18
q0 -1 -0.5 -1.5t-1.5 -0.5h-50q-2 0 -2 2v54q0 1 0.5 1.5t1.5 0.5h50q1 0 1.5 -0.5t0.5 -1.5v-10q0 -1 0.5 -1.5t1.5 -0.5h15l2 2v2q0 6 -2 11t-6.5 8.5t-10 5.5t-11.5 2zM585 215h-13q-1 0 -2 -0.5t-1 -1.5v-62q-5 7 -29.5 34.5t-25.5 28.5h-2q-1 1 -2 1h-13
q-1 0 -1.5 -0.5t-0.5 -1.5v-86q0 -2 2 -2h13q1 0 1.5 0.5t0.5 1.5v63q2 -2 16 -18t27 -30l13 -15q1 -1 2 -1.5t2 -0.5h13q1 0 1.5 0.5t0.5 1.5v86q0 2 -2 2zM443 213q-1 2 -4 2h-13q-3 0 -4 -2l-42 -83q-1 -2 -0.5 -3.5t2.5 -1.5h13q3 0 4 3l33 67l34 -67q1 -2 1.5 -2.5
t2.5 -0.5h13q5 0 2 5zM86 171q0 -3 -2 -3h-46v31h46q2 0 2 -2v-26zM76 215h-55q-2 0 -2 -2v-86q0 -2 2 -2h15q2 0 2 2v26h38q7 0 12.5 1.5t9.5 5t6.5 8t2.5 10.5v10q0 7 -4 13.5t-11 10t-16 3.5zM137 215h-15q-2 0 -2 -2v-86q0 -2 2 -2h15q3 0 3 2v86q0 2 -3 2zM444 152h-23
q-2 0 -2 -2v-23l2 -2h23q1 0 1.5 0.5t0.5 1.5v23q0 2 -2 2z" />
    <glyph glyph-name="uniE618" unicode="&#xe618;" horiz-adv-x="1044" 
d="M132 617q16 -1 68 -2t83.5 -3t74.5 -8t73.5 -20.5t49.5 -36.5q-11 -21 -41 -31.5t-86.5 -22.5t-93.5 -25q9 -18 53.5 -28.5t103 -17t117.5 -15.5t105 -32.5t57 -60.5l-218 -79q37 -31 152 -53.5t221.5 -30t172.5 -5.5q30 119 16.5 216t-54 177.5t-108 135.5t-145 91
t-164 43t-166.5 -8.5t-152 -63t-119 -120.5zM96 454q15 27 38.5 43.5t48.5 23t49.5 11.5t49 14t39.5 25l-219 15q-63 -90 -87.5 -185t-10.5 -176.5t52.5 -157.5t102.5 -130.5t138.5 -94.5t162 -49t171.5 5.5t168 68.5t151 142q-31 5 -74.5 10t-81 9t-83 10t-84.5 12
t-82.5 15.5t-79.5 20t-72 26t-64 33t-52 41.5t-40 52q12 17 28 29.5t33.5 20t37 12.5t40 8t38.5 5.5t37.5 6t34.5 8.5q-20 16 -48 26t-57 15.5t-61 9t-63 8.5t-60 12t-55.5 20.5t-45.5 33.5v1z" />
    <glyph glyph-name="uniE619" unicode="&#xe619;" horiz-adv-x="1039" 
d="M598 -209q143 18 254.5 110t157.5 228q38 106 24.5 226t-78.5 222q-72 112 -185 173.5t-239 61.5q-86 0 -138 -14q38 4 104 4q60 -1 117 -17t106 -44t90.5 -66.5t73.5 -86.5t52 -102q31 -71 31 -148q0 -11 -2 -33v-4q-11 -105 -75 -188t-160 -119q-2 -1 -4 -1l-11 -4
q-2 -1 -5.5 -2t-5.5 -1q-1 -1 -3 -2q-40 -11 -79 -12q-42 -3 -82 4q-35 7 -71 22q-105 42 -168 140t-58 216q2 39 11.5 75.5t25 69t37.5 61.5t49 52q0 2 -2 2l-12 -3l-3 -1q-2 -1 -7 -2.5t-8 -3t-7 -3t-7 -3.5q-5 -2 -7 -4q-1 -1 -3 -2t-3 -1q-73 -43 -123 -110l-1 -1
q-2 -2 -2 -3l-6 -8q-5 -7 -5 -8l-3 -5q-2 -1 -3 -3l-2 -4l-2 -4l-1 -1q-50 -83 -60 -181v-1q0 -2 -0.5 -4t-0.5 -4v-2q0 -2 -0.5 -5.5t-0.5 -4.5v-4v-16v-27q6 -116 69 -211.5t164 -148.5q130 -59 267 -44v0zM633 614v0q-12 3 -24.5 3.5t-24 -1t-23 -4.5t-22.5 -8
t-20.5 -11.5t-18.5 -14.5t-16.5 -17t-13.5 -19.5t-10.5 -22t-7.5 -24.5q-13 -62 21 -116t96 -67v-1q62 -13 96.5 -67t21.5 -117q-11 -53 -52 -87t-92 -36q-1 -1 0 -3q114 -10 207.5 59.5t117.5 184.5q14 63 1.5 123.5t-43.5 110.5t-81.5 85.5t-111.5 49.5zM219 629
q-12 -5 -23 -11.5t-21.5 -14.5t-18.5 -15t-18 -18t-15 -17.5t-15 -18.5q-20 -24 -31.5 -37t-33 -28.5t-43.5 -22.5q40 -11 72 -4q38 10 71 49q81 97 210 137q-15 10 -33 14.5t-44 2t-57 -14.5v-1z" />
    <glyph glyph-name="uniE61A" unicode="&#xe61a;" 
d="M528 376h12h12h12l12 -1h12h12l12 -1h11l12 -1h11l12 -1l11 -1h11l11 -1l11 -1l10 -1l11 -1l11 -1l10 -1l11 -1l10 -2l10 -1l10 -1l11 -1l9 -2l10 -2l10 -1l10 -2l9 -1l10 -2l9 -2l9 -1l11 -3l11 -2l11 -3l10 -2l10 -3l10 -2l9 -3l9 -2l9 -2l9 -3l9 -2l8 -3l8 -3l8 -3
l8 -3l7 -3l-509 507l-505 -505l8 3l9 3l9 3l9 2l10 3l10 3l10 3l10 2l11 3l11 2l11 3l11 2l12 3l12 2l12 2l12 2l11 1l10 2l10 2l10 1l11 2l10 2l11 1l10 1l11 1l11 2l10 1l11 1l11 1l11 1l11 1l11 1l11 1h11l12 1l11 1l12 1h11l12 1h11h11l12 1h12l12 1h12h12h12h12v1z
M510 -206l505 506l-6 1h-7h-7l-7 1h-8l-7 1h-8h-7l-8 1h-8h-9h-8h-8h-9h-9h-9h-9h-9h-10l-10 -1h-9h-10l-10 -1h-11l-10 -1h-11h-10l-11 -1l-11 -1l-11 -1l-11 -1h-11l-24 -2l-23 -2l-11 -1h-11l-10 -1l-11 -1l-10 -1l-10 -1l-10 -1l-9 -2l-9 -1l-9 -1l-9 -1l-8 -1l-8 -2
l-8 -1l-8 -1l-8 -1l-7 -2l-7 -1l-7 -1l-6 -1l-7 -1l-6 -2l-6 -1l-6 -1l-6 -1l-5 -2l-5 -2l-5 -1l-4 -2l-4 -1l-4 -1l-4 -2l-3 -1l-4 -2l-3 -2l-3 -1l-3 -2l-3 -1l-3 -2l-3 -2l-2 -1l-3 -2l-2 -2l-2 -1l-2 -2l-2 -2l-1 -2l-2 -2l-1 -2l-2 -2l-1 -2l-1 -2v-2l-1 -2l-1 -2v-2
v-2v-2v-3v-2v-1v-1l1 -1v-2l1 -2v-1v-2l1 -1l1 -2l1 -2l1 -1v-2l2 -2l1 -1l1 -1l1 -1l12 -11l7 -4l6 -4l4 -3l5 -3l4 -2l2 -2l2 -1l1 -1l1 -1l1 -1l1 -1l1 -1l2 -1l1 -2l1 -2l1 -1l2 -2l1 -1l1 -2v-2l1 -1l1 -2l1 -2l1 -1l1 -2v-2v-1l1 -2v-1l1 -2v-2v-1v-2v-2v-2v-2v-2v-2
v-2v-2v-2v-2l-1 -3l-1 -3l-2 -3l-1 -2l-2 -3l-2 -3l-3 -3l-3 -3l-3 -3l-3 -3l-4 -3l-4 -2l-4 -3l-5 -3l-5 -3l-5 -3l-5 -3l-6 -3l-6 -2l-6 -3l-7 -3l-7 -3l-7 -3l-7 -3l-8 -3l-8 -2l-8 -3l-8 -3l-9 -3l-9 -3l-9 -3l-10 -3l212 -213z" />
    <glyph glyph-name="uniE61B" unicode="&#xe61b;" 
d="M231 481q16 14 33.5 24.5t33.5 17t32 10.5t29 5.5t26 1.5t21.5 -1t15.5 -2q-6 13 -14.5 26t-26.5 33.5t-39.5 35.5t-54.5 26t-71 11q-44 0 -83 -18.5t-65 -48t-41 -66.5t-15 -75v-372q0 -23 18 -38l108 -83q1 -1 2.5 -2t5.5 -3t6.5 -1.5t5 4t2.5 11.5v339v1v7
q0 19 3.5 40t20.5 56t47 61zM1015 685q0 6 -1.5 12.5t-4.5 11t-5.5 8t-4.5 4.5l-1 2l-109 83q0 1 -1.5 2t-5.5 2.5t-7 1.5t-5 -4t-2 -11v-333v-9q0 -19 -3.5 -40t-21 -55.5t-47.5 -60.5q-27 -23 -57.5 -37t-57 -18t-44 -4t-32.5 3q6 -13 14.5 -26.5t26.5 -33.5t39.5 -35
t55 -26t70.5 -11q58 0 106 31t73 78.5t25 98.5v58v134v174v0zM669 488l3 3q19 15 40.5 25.5t39.5 14.5t37.5 5.5t30.5 1t21 -1.5q-4 13 -10.5 26t-23 33.5t-36.5 35.5t-53.5 26t-72.5 11q-96 0 -160 -77q-16 -19 -26.5 -43t-14 -40.5t-4.5 -32.5q-3 -34 -12.5 -65t-19 -50.5
t-22.5 -36.5t-18 -23l-11 -10q-25 -21 -52.5 -33t-51.5 -14.5t-39.5 -2t-28.5 3.5q5 -14 12.5 -27.5t24.5 -34t37.5 -35.5t54.5 -26t73 -10q83 3 144 64q48 49 57 137q4 47 21 87.5t31 58t29 30.5v0z" />
    <glyph glyph-name="uniE61C" unicode="&#xe61c;" 
d="M925 283h-170h-1h-4h-4q-2 0 -4.5 -0.5t-4 -1t-5 -3t-5.5 -4t-3 -2.5l-209 -214q-7 -5 -13 0l-223 227q-6 6 0 13l224 227q2 3 5.5 3t6.5 -3l196 -200l13 -11l4 -2q4 -1 10 1.5t9 5.5l4 3l90 94l-264 267q-58 60 -142 49q-162 -28 -265 -156q-100 -124 -101 -287
q0 -73 23 -141.5t64 -123.5t95.5 -96.5t121 -63.5t136.5 -22q114 0 213.5 57t160 156.5t65.5 217.5q0 6 -5 9q-3 2 -7.5 2.5t-7.5 -0.5zM647 691l232 -235l64 64q1 1 2 3t3 7t3 9q1 3 -1.5 6t-5.5 5l-2 3l-141 145q-38 38 -80.5 59t-77 24.5t-63.5 1t-45 -8.5l-16 -6
q2 0 6.5 -0.5t19 -4.5t29 -11.5t34.5 -23.5t39 -37z" />
    <glyph glyph-name="uniE61D" unicode="&#xe61d;" 
d="M507 746q-113 0 -212.5 -56.5t-161 -154t-68.5 -212.5q-7 -116 42 -220.5t140.5 -173.5t204.5 -83q112 -15 217.5 28.5t179 132.5t94.5 202q16 86 0 173.5t-61 159.5q-44 70 -111.5 119t-147.5 70q-56 15 -116 15zM164 294q0 62 22 121.5t60 106t92 79t114 42.5v-121
q0 -3 1 -12t1 -16t-2 -12q-2 -3 -9 -4t-14 -0.5t-16 1t-10 0.5q-37 0 -67 -21t-38 -57q-2 -10 -2.5 -21t0 -27t0.5 -21v-30q0 -18 -0.5 -31t0 -29.5t0.5 -30.5q0 -13 3.5 -25.5t9.5 -23.5t15 -20.5t20 -16.5q15 -8 30.5 -10.5t37.5 -2.5q2 0 6.5 0.5t7.5 0.5h8q5 0 8.5 -1
t6 -2.5t3.5 -4.5t1.5 -7t0.5 -8.5v-8.5l-2 -8v-7v-39v-78q-122 20 -205 119t-83 226zM407 210q-4 0 -7 4t-3.5 10.5t-0.5 12.5t0.5 13.5t0.5 9.5v59v31q0 2 -0.5 9t0 11.5t2.5 7.5q3 5 13.5 6t26.5 0t17 -1h112q2 0 9 0.5t13.5 0.5t13.5 -0.5t11.5 -2.5t5.5 -6q2 -8 2 -18
t-1 -22.5t-1 -18.5v-80v-3v-9q0 -3 -1.5 -7t-4.5 -5.5t-9 -1.5h-44h-155zM562 -51v121q0 3 -0.5 8.5t-1 9.5t0 8.5t1.5 7.5t4 5.5t8 2.5q8 0 22.5 -0.5t27 0t22.5 3.5q36 10 54 40t18 70v57v60v11v11v12q0 6 -0.5 11t-1.5 11t-2.5 11t-3.5 10.5t-5 10.5q-18 29 -45.5 39
t-66.5 10q-2 0 -9 -0.5t-12.5 -0.5t-7.5 2q-3 2 -3.5 6.5t0.5 10.5t1 7v139q123 -20 205.5 -121t82.5 -228q0 -136 -93 -238q-82 -88 -195 -107z" />
    <glyph glyph-name="uniE61E" unicode="&#xe61e;" 
d="M481 485h49q26 0 30 8q1 2 2 5.5t1 5.5v26v33v137v5q1 60 -2 60h-38h-39h-18q-2 0 -2 -33v-136q0 -8 -0.5 -18.5t-0.5 -19.5t-0.5 -18.5t0 -19.5t1.5 -19q2 -14 17 -16zM622 755v-142q0 -13 1.5 -41.5t1 -51t-3.5 -41.5q-1 -12 -19.5 -15t-37 0t-29.5 0q-7 -3 -10 -11
t-3 -15.5t1 -19t1 -14.5v-91q2 6 8.5 9t11 3.5t14 0t11.5 -0.5q5 0 11 -0.5t11.5 -1t11.5 -0.5t11.5 -0.5t11.5 -0.5l10 2q6 0 11 1q15 4 15 20q-2 1 -2 9t1 17.5t1 10.5v56v203q61 -29 107.5 -80t72 -115.5t25.5 -133.5q0 -133 -88 -236t-218 -120v108v54v25v4v5v4q1 3 2 5
l1 1q1 0 3 1q3 1 24 0q72 -3 72 14q0 3 -1 6q-2 2 -2 8.5t0.5 12.5t1 13.5t0.5 10.5v94q0 -7 -2.5 -11.5t-8.5 -6t-10 -2t-13 0t-10 0.5q-8 0 -24 0.5t-28.5 0.5t-23.5 -1q-5 0 -8.5 -2t-5.5 -5.5t-3.5 -7t-1.5 -8.5v-9q0 -4 0.5 -9.5t0.5 -7.5v-91h-4q-3 0 -4.5 -0.5t-4 0
t-3.5 1.5q-4 1 -4.5 1.5t-0.5 7.5v25v47q0 2 0.5 6t0.5 7v8v8q0 3 -0.5 7t-1.5 7q0 5 -3.5 8.5t-8 5t-10.5 2t-10.5 0.5t-11 -0.5t-8.5 -0.5q-8 0 -23 -1t-28 -1t-23 2q-13 4 -11 18v-107q0 -4 -0.5 -11.5t-0.5 -13.5t1 -11q1 -6 4.5 -9.5t9.5 -5t10.5 -1.5t12 0.5t9.5 0.5
h31h15q3 0 4.5 -1t2 -3t0.5 -4v-5v-5v-189q-130 17 -218 120t-88 236q0 105 57 195t150 134v-231q0 -11 -0.5 -32.5t-0.5 -33.5q3 -17 19 -19h59q3 0 14.5 0.5t19 0.5t16 -3t11.5 -10v104q0 2 0.5 10.5t0.5 11.5l-2 9q-1 6 -3.5 8.5t-7 5t-11.5 3.5h-7h-8h-8h-7h-8h-8
q-11 0 -17.5 2t-9 9t-2.5 12v19v248q-102 -26 -182 -96.5t-121.5 -169.5t-33.5 -206q6 -95 51 -179t113.5 -141t158.5 -84.5t182 -14.5q113 15 203.5 84t139.5 173.5t42 219.5q-5 96 -49.5 182.5t-119.5 147.5t-167 84z" />
    <glyph glyph-name="uniE61F" unicode="&#xe61f;" 
d="M942 180l-5 6l-6 7l-5 6l-6 6l-6 6l-6 6l-6 5l-6 5l-7 6l-6 5l-7 5l-6 5l-7 4l-7 5l-7 4l-7 4l1 36v9v8v9l-1 8l-1 8l-1 9l-1 8l-2 8l-1 8l-2 7l-2 8l-2 8l-3 7l-2 8l-3 7l-3 8l-3 7l-4 7l-3 8l-4 7l-4 7l-4 6l-4 7l-4 7l-5 7l-5 6l-5 7l-5 6l-6 6l-5 7l-6 6l-6 6l-6 6
l-6 5l-6 6l-6 5l-7 6l-6 4l-7 5l-6 5l-7 4l-7 5l-7 4l-7 4l-7 3l-7 4l-7 3l-7 3l-7 3l-8 3l-7 3l-8 2l-8 2l-7 2l-8 2l-8 2l-8 1l-8 1l-8 1l-8 1l-9 1h-8l-9 1h-8h-9l-8 -1h-9l-8 -1l-8 -1l-8 -1l-8 -1l-8 -1l-8 -2l-8 -2l-8 -2l-8 -2l-7 -2l-8 -3l-7 -3l-7 -3l-8 -3l-7 -3
l-7 -4l-7 -3l-7 -4l-7 -4l-7 -5l-7 -4l-6 -5l-7 -5l-6 -4l-7 -6l-6 -5l-7 -6l-6 -5l-6 -6l-6 -6l-6 -7l-5 -6l-6 -6l-5 -6l-5 -7l-5 -7l-4 -6l-5 -7l-4 -7l-4 -7l-4 -7l-4 -7l-3 -7l-4 -7l-3 -7l-3 -8l-3 -7l-2 -8l-2 -7l-3 -8l-2 -8l-1 -8l-2 -7l-1 -9l-2 -7l-1 -9l-1 -8
v-8l-1 -9v-8v-9v-8v-8l1 -9v-8l1 -8l1 -9l2 -8l1 -8l2 -8l1 -8l2 -7l3 -8l2 -8l2 -7l3 -7l3 -8l3 -7l4 -7l3 -7l4 -7l4 -7l4 -7l4 -7l5 -7l4 -6l5 -7l5 -6l5 -7l6 -6l5 -6l6 -6l6 -6l6 -6l6 -6l6 -6l7 -5l6 -5l7 -5l6 -5l7 -5l7 -4l7 -4l7 -4l6 -4l7 -4l8 -3l7 -4l7 -3l8 -3
l7 -2l8 -3l7 -2l8 -2l8 -2l8 -2l8 -2l8 -1l8 -1l8 -1l8 -1l8 -1h9l8 -1h9h16l15 1l15 1l14 1l13 2l13 3l6 1l6 1l5 1l6 2l5 2l6 1l5 2l5 2l4 2l5 2l4 3l5 2l4 3l3 2l4 3l4 2l3 3l4 3l3 3l3 3l4 6l4 5l1 3l2 3l1 2l1 3l1 3l1 2v3l1 2v3v3v2v3l-1 3v3l-1 3l-1 3l-1 3l-1 3
l-2 2l-1 3l-2 3l-2 2l-2 3l-3 2l-2 2l-3 3l-3 2l-3 2l-3 2l-4 2l-3 2l-4 2l-8 4l-9 3l-10 3l-10 3l-11 3l-12 2l-15 3l-15 2l-15 2l-16 2l-16 2l-17 1h-17l-17 1h-17l-18 -1h-18l-19 -1l-19 -2l-19 -1l-19 -2l-20 -3v144l14 2l14 2l15 1l14 1l15 1l15 1h15h15h15h16l15 -1
l16 -1l16 -1l16 -1l16 -2l16 -2h7l5 -1h6h5h5h5l5 1h4l4 2l3 1l3 2l3 1l3 2l3 3l2 3l2 2l3 7l2 6l1 3v2v3v2v3l-1 3l-1 3v2l-2 3l-1 2l-2 3l-1 2l-2 2l-2 3l-2 2l-2 2l-3 2l-3 2l-2 2l-3 2l-7 3l-7 3l-8 3l-9 4l-9 2l-10 2l-10 3l-12 2l-14 1l-14 2l-13 1l-14 1l-14 1l-13 1
l-14 1h-13h-14l-13 -1h-13l-14 -1l-13 -1l-13 -1l-13 -2l-13 -2v142l16 1l16 1l16 1h16l16 1h15h15h15h15l14 -1l14 -1l14 -1l14 -1l13 -1l13 -2l14 -2l11 -2l11 -2l11 -3l11 -2l10 -3l10 -4l10 -3l10 -4l9 -5l9 -4l9 -5l8 -5l8 -6l8 -5l8 -6l8 -7l6 -6l7 -7l6 -6l6 -7l4 -6
l5 -7l4 -7l3 -7l3 -7l2 -7l2 -7l1 -7l1 -7v-8v-7l-1 -7l-1 -7l-2 -6l-2 -6l-2 -6l-2 -6l-4 -6l-3 -5l-4 -6l-4 -5l-4 -5l-5 -4l-5 -5l-6 -4l-6 -4l-6 -5l-7 -3l21 -7l8 -3l7 -2l8 -3l7 -3l7 -3l7 -3l7 -3l6 -3l6 -3l6 -3l6 -4l5 -4l5 -3l6 -4l5 -4l4 -4l5 -4l4 -5l4 -4l4 -5
l3 -4l4 -5l3 -5l3 -5l3 -5l2 -5l2 -6l2 -5l2 -6l2 -5l1 -6l1 -6l2 -7v-7l1 -7v-7v-7l-1 -7v-7l-2 -6l-1 -7l-2 -7l-2 -6l-2 -7l-3 -6l-3 -7l-3 -6l-4 -6l-4 -6l-4 -7l-5 -6l-5 -6l-5 -6l-5 -6l-6 -6l-6 -6l-7 -5l-7 -6l-7 -6l-7 -5l-8 -6l-8 -6l-9 -5l-8 -6l-13 -7l-13 -7
l-14 -7l-13 -6l-14 -5l-14 -6l-14 -4l-14 -5l-15 -3l-15 -3l-15 -3l-15 -2l-15 -2l-16 -1l-16 -1h-16h-11h-12l-11 1l-12 1l-11 1l-10 2l-11 1l-11 2l-11 2l-11 3l-10 2l-10 3l-10 3l-11 4l-10 4l-10 4l-9 4l-10 4l-10 5l-9 5l-10 6l-9 5l-9 6l-9 6l-9 6l-9 7l-9 7l-8 7
l-9 7l-8 7l-9 8l-8 8l-8 9l-8 8l-8 8l-7 9l-7 9l-7 9l-6 8l-6 9l-7 10l-5 9l-6 9l-5 10l-5 9l-5 10l-4 10l-5 10l-4 10l-3 10l-4 10l-3 10l-3 11l-3 10l-2 11l-3 10l-2 11l-1 11l-2 11l-1 11l-1 11v12l-1 11v12v11l1 11v11l1 12l1 11l2 11l1 11l2 10l3 11l2 11l3 10l3 10
l3 11l4 10l3 10l4 10l5 9l4 10l5 10l5 9l5 10l6 9l5 9l7 9l6 9l6 9l7 9l7 8l7 9l8 8l8 9l8 8l8 8l9 8l8 7l9 8l8 7l9 7l9 6l9 6l9 6l9 6l9 6l10 5l9 5l10 4l10 5l9 4l10 4l10 4l11 3l10 4l10 3l10 3l11 2l11 2l11 2l11 2l10 1l11 1l12 1l11 1h12h11h12h11l11 -1l11 -1l11 -1
l11 -1l11 -2l11 -2l10 -2l11 -2l10 -3l11 -3l10 -4l10 -3l10 -4l10 -4l10 -4l10 -5l9 -4l10 -5l10 -5l9 -6l9 -6l9 -6l9 -6l9 -6l9 -7l9 -7l8 -8l9 -7l8 -8l8 -8l8 -8l8 -9l8 -8l7 -9l7 -8l7 -9l6 -9l7 -9l6 -9l6 -9l5 -9l5 -10l5 -9l5 -10l4 -10l5 -9l4 -10l3 -10l4 -10
l3 -11l3 -10l3 -10l2 -11l2 -11l3 -10l1 -11l2 -11l1 -11l1 -12v-11l1 -11v-11v-8v-8l-1 -8v-8l-1 -8l-1 -7l-1 -8l-1 -8l-2 -15l-3 -15l-4 -15z" />
    <glyph glyph-name="uniE620" unicode="&#xe620;" 
d="M218 435q5 6 13.5 16.5t38.5 32.5t63 33.5t84 8.5t104 -31q4 3 11 7.5t30 15.5t47 19.5t59.5 15t69.5 5.5h3q22 -1 41 -2.5t51.5 -13t46.5 -31.5q8 -12 10 -25t-4 -26.5t-19 -24.5q-5 5 -16 11t-50.5 19t-87 17t-127.5 -5t-170 -37q-5 3 -14.5 7t-37.5 10t-54 4
q-9 0 -18 -1.5t-16.5 -3t-14.5 -3.5t-12.5 -4.5t-10.5 -4.5t-8.5 -3.5t-6.5 -3t-4 -1.5zM832 47l128 269q-1 3 -3 7t-9.5 16t-17.5 24t-28 27t-39.5 27t-53.5 23t-68.5 17t-86 6t-104.5 -8q-87 -12 -169 -44t-136 -66t-99 -71t-62.5 -56t-20.5 -23q8 5 23.5 14t64.5 29
t100 31.5t126.5 11.5t148.5 -21q44 -13 84.5 -31.5t70.5 -38t56 -40.5t43 -39t29 -32.5t17 -22.5zM832 47z" />
    <glyph glyph-name="uniE621" unicode="&#xe621;" 
d="M153 301l3 -37l3 -33l9 -37l12 -31l16 -33l18 -28l9 -15l12 -12l22 -28l27 -21l28 -21l30 -19l31 -15l33 -12l34 -9l18 -3l19 -4h18h18h37l33 7l37 9l31 12l33 15l28 19l15 9l12 12l28 21l21 28l22 27l18 28l15 33l12 31l10 37l3 15l3 18v18v19v36l-6 37l-10 34l-12 33
l-15 31l-18 30l-10 16l-12 12l-21 24l-28 25l-27 21l-28 18l-33 16l-31 12l-37 9l-15 3h-18l-18 3h-19l-36 -3l-37 -3l-34 -9l-33 -12l-31 -16l-30 -18l-16 -9l-12 -12l-27 -25l-22 -24l-21 -28l-18 -30l-16 -31l-12 -33l-9 -34l-3 -18v-19l-3 -18v-18zM64 301l3 46l4 24
l3 21l12 43l6 21l9 19l9 21l9 19l22 36l12 19l15 18l28 30l15 16l15 12l19 15l18 12l18 13l19 9l39 18l40 15l21 6l22 7l21 3l24 3l46 3l46 -3l22 -3l21 -3l43 -13l21 -6l21 -9l19 -9l18 -9l40 -22l15 -12l18 -15l31 -28l15 -15l15 -15l13 -18l12 -19l12 -18l9 -18l22 -40
l15 -40l3 -21l6 -22l3 -21l3 -24l3 -46l-3 -46l-3 -21l-3 -22l-9 -43l-9 -21l-6 -21l-10 -19l-12 -18l-21 -40l-12 -15l-13 -18l-30 -31l-15 -15l-16 -15l-18 -13l-15 -12l-19 -12l-21 -9l-37 -21l-42 -16l-22 -6l-21 -3l-21 -3l-22 -3l-46 -3l-46 3l-24 3l-21 3l-43 9
l-21 9l-19 7l-21 9l-18 12l-37 21l-18 12l-19 13l-30 30l-16 16l-12 15l-15 18l-12 15l-12 19l-10 21l-18 37l-15 42l-6 22l-6 21l-3 22l-4 21zM764 270v-61v-73v-64h-71h-149v64h149v73h-79h-70v64v67v68h70h79v67h-149v64h149h71v-64v-67v-68h-71h-79v-67h150v-3zM260 270
v-61v-73v-64h70h150v64h-150v73h79h71v64v67v68h-71h-79v67h150v64h-150h-70v-64v-67v-68h70h79v-67h-149v-3z" />
    <glyph glyph-name="uniE622" unicode="&#xe622;" 
d="M770 79q-31 -1 -84.5 -3t-69.5 -2q-10 -41 -45 -64t-77.5 -22t-81.5 16.5t-61.5 55t-13.5 90.5q7 52 50 83.5t99.5 29.5t99.5 -41q15 -17 23 -36t13 -52q15 1 35.5 1.5t38 1.5t39 1.5t35.5 1.5q1 66 -27 122t-76 90.5t-106 52t-123 9.5t-123 -41q-30 -17 -54.5 -42.5
t-40 -55.5t-24.5 -63.5t-10 -68.5t4 -69.5t18.5 -67t32.5 -60.5t46 -50t59 -36v-5q-81 2 -156.5 56t-94.5 127l2 527q42 29 131.5 92t132.5 92q2 -1 5.5 -2.5t4.5 -2.5q-7 -102 3 -306q9 9 27 28q16 16 25 24.5t25 22t29.5 21.5t33 15.5t41.5 11.5q48 8 85.5 5.5t66.5 -12.5
q66 -22 114 -65t72 -94t29 -109.5t-10.5 -111.5t-53.5 -100.5t-93 -76.5q-3 0 -12 -5.5t-13 -5.5l2 2q1 3 3.5 7t4.5 7q3 13 9.5 38.5t10.5 38.5z" />
    <glyph glyph-name="uniE623" unicode="&#xe623;" 
d="M697 627q-14 34 -43 60t-66.5 39.5t-78.5 13.5q-88 0 -149.5 -60t-61.5 -145v-12q0 -4 1 -10.5t2 -11.5q3 -11 6.5 -12.5t10.5 4.5q87 75 193 75h14q7 0 14 -1l14 -2q7 -1 13.5 -2t12.5 -3q8 -2 10.5 -1.5t9.5 4.5q19 12 41.5 22.5t49.5 21.5q6 2 8 7t-1 13zM240 565
q-55 -5 -100.5 -45t-64.5 -99q-27 -83 11 -160.5t118 -103.5q23 -7 34 -8q11 0 13.5 2.5t-0.5 11.5q-21 50 -24.5 101t12.5 106q11 33 29 62q4 7 4.5 9.5t-1.5 10.5q-10 40 -13 100q-1 7 -5 10.5t-13 2.5zM158 112q-12 -55 12 -110.5t75 -91.5q70 -52 155 -39.5t135 80.5
q4 5 5.5 7.5t4.5 7t5 8t3 7.5q6 16 -5 16h-4q-26 -2 -52.5 0t-51.5 8t-50 17.5t-47 27.5q-28 20 -50 47h-1q-5 6 -7 7t-9 2q-42 3 -100 18q-7 2 -11.5 -1t-6.5 -11zM564 -107q49 -28 108.5 -22.5t110.5 42.5q70 51 85 136t-35 153q-14 19 -23 26q-8 7 -12 6.5t-6 -10.5
q-26 -111 -112 -174q-28 -20 -60 -33q-8 -3 -9.5 -5t-4.5 -9q-16 -39 -48 -89q-4 -5 -2.5 -10.5t8.5 -10.5zM897 212q42 37 55.5 96.5t-6.5 117.5q-18 54 -59.5 92.5t-93 49.5t-106.5 -5l-9 -3l-8 -2l-8 -4t-7 -4q-9 -6 -9.5 -10t7.5 -9q98 -59 131 -161q3 -8 5 -16.5
t3.5 -17t3 -16.5t1.5 -17v-1q1 -4 1 -5.5t1 -3.5t2 -3.5t5 -3.5q32 -28 70 -74q9 -11 21 0zM507 47q-51 0 -96 21q-3 1 -4.5 3t-1.5 4v174q0 7 3 10.5t7.5 2.5t9.5 -5q6 -6 12.5 -13t13 -13t13.5 -13t12.5 -13t13 -13t12.5 -13q5 -4 5.5 -4t4.5 5q16 15 86.5 83.5
t107.5 105.5q4 3 10 3t8 -5q18 -49 18 -91q0 -95 -69.5 -162t-165.5 -67zM511 512q51 0 97 -21q6 -3 6 -8v-173q0 -11 -6.5 -13.5t-13.5 5.5q-60 59 -78 77q-3 4 -4.5 4t-4.5 -4q-1 0 -195 -189q-3 -4 -9.5 -3.5t-7.5 5.5q-19 49 -19 90q0 63 32 116t86.5 83.5t116.5 30.5z
M511 512z" />
    <glyph glyph-name="uniE624" unicode="&#xe624;" 
d="M961 305q0 -58 -35.5 -111.5t-95.5 -92t-143 -61t-174.5 -22.5t-174.5 22.5t-143 61t-95.5 92t-35.5 111.5q0 88 75 160t197 105q63 17 135 17q91 0 164 -26q-28 2 -58 3q-109 1 -201.5 -31.5t-146.5 -89.5t-55 -124q-1 -52 43 -96.5t120.5 -72t168 -29.5t169.5 21
t124.5 65.5t47.5 93.5q0 33 -31 61t-84.5 44.5t-117.5 16.5q-63 0 -116.5 -16.5t-84.5 -44.5l104 -60l138 80l62 -36q6 -4 10 -8t6 -9t2 -11q0 -17 -19 -28l-167 -97q-14 -7 -31.5 -7t-31.5 7l-177 102q-10 6 -17.5 14t-11.5 17.5t-4 19.5q0 13 7 25q34 63 125 103t205 40
q94 0 174 -28t127 -76t47 -105z" />
    <glyph glyph-name="uniE625" unicode="&#xe625;" 
d="M473 119l121 307l127 -307h-248zM218 119l122 307l126 -307h-248zM850 189h95l-5 -18h-82zM831 232h122l-3 -19h-110zM813 275h145l-2 -18h-135zM795 319h163v-19h-155zM777 362h177l2 -19h-172zM758 405h188l4 -18h-184zM510 749h18l20 -2l18 -1l18 -4l18 -3l18 -4
l18 -5l17 -5l8 -3l9 -3l16 -7l17 -8l15 -8l15 -8l16 -9l14 -11l15 -10l13 -10l14 -12l13 -12l12 -12l13 -13l11 -13l5 -8l5 -7l12 -14l9 -15l9 -14l10 -16l7 -16l8 -16l6 -16l6 -17l7 -17h-192l-119 277l-123 -312l-130 309l-229 -591l104 -130h530l97 142l-9 21h62l-6 -16
l-7 -16l-7 -15l-7 -14l-10 -16l-8 -14l-10 -14l-10 -13l-10 -14l-11 -13l-12 -11l-12 -13l-12 -11l-13 -11l-13 -11l-14 -10l-13 -9l-14 -9l-15 -9l-15 -8l-16 -7l-15 -6l-17 -7l-15 -6l-17 -5l-17 -4l-17 -4l-17 -3l-8 -1l-10 -1l-17 -2l-18 -1h-18h-23l-23 2l-22 3l-23 4
l-22 5l-20 5l-21 7l-21 9l-19 9l-20 9l-9 6l-9 5l-19 12l-17 12l-18 14l-8 7l-7 7l-9 7l-7 8l-15 15l-15 16l-6 9l-6 9l-14 18l-5 8l-6 9l-5 9l-5 11l-11 18l-9 21l-7 19l-7 22l-6 21l-4 11l-2 10l-2 12l-2 11l-3 22l-1 23l-1 12v11l1 23l1 23l3 22l4 23l6 22l6 20l7 21
l7 20l9 20l11 20l5 9l5 9l11 19l14 17l12 18l7 8l8 7l7 8l8 8l16 15l15 15l9 6l9 6l17 13l9 5l10 7l9 5l9 5l20 10l19 10l21 8l21 6l20 6l12 3l10 2l11 2l12 2l22 4l23 1l11 1h12z" />
    <glyph glyph-name="uniE626" unicode="&#xe626;" 
d="M466 367l-211 202l81 84l211 -201zM484 136l-79 -82l64 -62l-13 -13l-255 245l13 13l66 -63l79 82l-211 201l-78 -81l81 -78l-87 -90l372 -356l87 90l81 -78l79 82zM560 465l74 78l-66 63l13 13l256 -244l-13 -13l-64 61l-75 -78l199 -190l77 80l-82 78l79 81l-372 356
l-78 -81l-82 78l-77 -81zM372 269l81 85l-211 201l-81 -84zM672 332l-81 -85l199 -190l81 85zM578 234l-81 -85l199 -190l81 85z" />
    <glyph glyph-name="uniE627" unicode="&#xe627;" 
d="M147 253l-5 -25h129l6 25h-130zM475 228l4 25h-146l-6 -25h148zM557 351l-20 -98l-6 -25l-20 -99h-56h-148l-4 -23h238l32 147l20 98h56h229l-21 -98h-228l-52 -246h-56h-240l-4 -23h332l31 145l20 99h58h134l-20 -99h-136l-30 -145l-22 -99h-56h-388l51 244h-130h-56
l21 99l5 25l21 98h56h129l52 244h56h148l25 124h18h360l-22 -99h-321l-4 -25l-21 -99h-57h-146l-6 -23h240l4 23l21 99h56h230l-22 -99h-228l-26 -122h-56h-239l-6 -23h148h56z" />
    <glyph glyph-name="uniE628" unicode="&#xe628;" 
d="M306 593v-695q41 -22 86 -34v590q0 45 -23.5 82.5t-62.5 56.5zM718 593v-695q-41 -22 -87 -34v590q0 45 24 82.5t63 56.5zM719 690q0 13 -11 18q-45 22 -94.5 33.5t-101.5 11.5q-104 0 -196 -45q-11 -5 -11 -18q0 -14 13 -19q62 -19 101 -71.5t39 -118.5v-630
q27 -3 53.5 -3t54.5 3v630q0 44 18 83t49.5 67t71.5 40q14 5 14 19zM202 330q7 -2 13.5 -1.5t12 4t9.5 9.5v318q-54 -42 -94 -97.5t-62 -123t-22 -139.5q0 -107 47.5 -201t130.5 -158v318q-6 9 -15.5 12.5t-19.5 -0.5q-33 -12 -43 -47v-1q0 -2 -1 -3t-2.5 -1.5t-3.5 -0.5
q-3 0 -5 2q-30 35 -30 80q0 23 8 44t22 37q2 2 5 2q6 0 7 -5v2l-1 1q8 -38 44 -51zM923 271q-17 -6 -28 -18.5t-16 -29.5q-1 -5 -7 -5q-4 0 -6 3q-9 11 -15 23.5t-9.5 27t-3.5 28.5q0 45 28 80q1 1 2.5 2t3.5 1t3.5 -0.5t2.5 -2t1 -2.5q9 -36 44 -48q11 -4 22 1t15 16l1 6
q-10 92 -56 171.5t-118 135.5v-719q72 56 118 135.5t56 171.5l-1 6q-2 3 -4 6.5t-5 5.5t-6.5 4t-7 2.5t-7.5 0t-7 -1.5zM923 271z" />
    <glyph glyph-name="uniE629" unicode="&#xe629;" 
d="M617 603l-428 -428q9 -9 16 -15t14 -10t10.5 -6.5t10.5 -4t9.5 -2t12 -1.5t13.5 -1q16 -2 33.5 3.5t26.5 11.5l9 7l361 359zM503 715l-361 -359q-6 -6 -11.5 -18t-8 -29t-0.5 -35t12 -38t28 -35q1 -1 1 -2l429 429zM390 -24l429 427q-17 16 -27 24t-21 12t-17.5 4.5
t-22.5 1.5t-34 -5.5t-24 -10.5t-9 -7l-362 -359zM504 -137l361 359q12 11 18.5 35.5t-1.5 59.5t-37 61l-1 1l-429 -428z" />
    <glyph glyph-name="uniE62A" unicode="&#xe62a;" 
d="M511 700q-131 0 -223.5 -92.5t-92.5 -223.5q0 -101 58 -183q51 -71 130 -106q20 -9 41 -15t43 -9t44 -3q131 0 224 92.5t93 223.5t-93 223.5t-224 92.5zM664 446q0 7 4.5 11.5t11.5 4.5h3q14 -3 16 -16v-211q0 -2 -0.5 -4.5t-2 -4.5t-3.5 -3.5t-4.5 -2t-5.5 -0.5h-3
q-7 0 -11.5 4.5t-4.5 10.5v211zM579 588q0 8 5.5 13t13 5t12.5 -5t5 -13v-351q0 -2 -0.5 -4.5t-1.5 -4t-3 -3.5t-4 -3t-4 -1.5t-5 -0.5q-7 0 -12.5 5t-5.5 12v351zM495 496q0 7 5.5 12t12.5 5h1q2 0 3.5 -0.5t3.5 -1.5t3.5 -2t2.5 -3l2 -2q1 -2 1.5 -4t0.5 -4v-259
q0 -5 -2.5 -9t-6.5 -6t-8 -2h-1q-7 0 -12.5 5t-5.5 12v259zM411 382q0 5 4 9t10 4h8q12 -1 14 -13v-149q0 -5 -4 -9t-10 -4h-8q-6 0 -10 4t-4 9v149zM327 414q0 4 2 7.5t6 6t8 2.5h4q3 0 6 -1.5t5 -3.5t3 -5t1 -6v-178q0 -7 -4.5 -11.5t-10.5 -4.5h-4q-4 0 -8 2t-6 5.5
t-2 8.5v178zM714 190h-402q-4 0 -4 4q0 3 1 4t3 1h402q2 0 3.5 -1t1.5 -4q0 -4 -5 -4zM597 896h-170q-87 0 -166 -34t-136 -91t-91 -136t-34 -166v-170q0 -116 57 -214.5t155.5 -155.5t214.5 -57h170q116 0 214.5 57t155.5 155.5t57 214.5v170q0 87 -34 166t-91 136t-136 91
t-166 34zM511 33q-37 0 -73 8t-70 22q-87 39 -143 118q-31 44 -48 95.5t-17 107.5q0 95 47 176t128 127.5t176 46.5q48 0 93.5 -12.5t84 -35t70.5 -55t55 -71t35.5 -84t12.5 -92.5q0 -141 -98 -243q-97 -101 -236 -107q-9 -1 -17 -1z" />
  </font>
</defs>
</svg>
