<?xml version="1.0" encoding="UTF-8" standalone="no"?>
<svg width="39px" height="47px" viewBox="0 0 39 47" version="1.1" xmlns="http://www.w3.org/2000/svg" xmlns:xlink="http://www.w3.org/1999/xlink" xmlns:sketch="http://www.bohemiancoding.com/sketch/ns">
    <!-- Generator: Sketch 3.3.3 (12072) - http://www.bohemiancoding.com/sketch -->
    <title>security</title>
    <desc>Created with Sketch.</desc>
    <defs></defs>
    <g id="金桥梁微信" stroke="none" stroke-width="1" fill="none" fill-rule="evenodd" sketch:type="MSPage">
        <g id="首页" sketch:type="MSArtboardGroup" transform="translate(-310.000000, -557.000000)" fill="#56CFB0">
            <g id="内容导航" sketch:type="MSLayerGroup" transform="translate(-1.000000, 543.000000)">
                <g id="100%本息保障-+-安全保障-+-Imported-Layers" transform="translate(205.000000, 14.000000)" sketch:type="MSShapeGroup">
                    <g id="security" transform="translate(106.000000, 0.000000)">
                        <path d="M19.1969363,46.950114 L18.5834112,46.7823747 C-6.00244917,32.7084662 0.862734446,7.65275439 0.934402124,7.40079198 L1.14526252,6.66669674 L1.91247951,6.65839223 C11.3367496,6.56615915 16.1743475,2.4460614 17.8161351,0.679615288 C18.4485979,0.107016291 19.000871,0 19.3612807,0 C20.208569,0 20.7356313,0.545506266 20.8325099,0.654525063 C22.4555372,2.41873308 27.2827193,6.56380326 36.757352,6.65839223 L37.4908953,6.66457644 L37.7227648,7.35479323 C37.9166995,7.93363534 42.3938877,21.7098772 33.308959,34.6759875 C29.8626373,39.3058409 27.2614143,41.4309712 27.1539423,41.5189048 C24.9723687,43.4427243 22.462047,45.2236591 19.7281411,46.7885589 L19.1969363,46.950114 L19.1969363,46.950114 Z M2.72810622,8.68687218 C1.7860698,12.7860025 -1.50655994,32.6159975 19.1652747,44.7494774 C21.6020941,43.3209837 23.8384689,41.711911 25.8281791,39.9645476 C25.8829211,39.9183133 28.3849575,37.8647431 31.6458665,33.4865576 C39.027519,22.9473672 36.7215478,11.5503383 35.9711381,8.68687218 C26.1908968,8.37006391 21.0791745,3.9458797 19.30861,2.02023434 C17.5486388,3.97738972 12.4348452,8.3638797 2.72810622,8.68687218 L2.72810622,8.68687218 Z" id="Fill-1" fill-opacity="0.493999094"></path>
                        <path d="M18.5434052,5.31158897 C17.0825918,6.88479323 12.9513141,10.3776353 4.96886039,10.455203 C4.96886039,10.455203 -0.739283763,30.331609 18.9734112,41.6175576 C18.8744613,41.6134348 18.5434052,5.31158897 18.5434052,5.31158897 L18.5434052,5.31158897 Z" id="Fill-2"></path>
                    </g>
                </g>
            </g>
        </g>
    </g>
</svg>