<?xml version="1.0" encoding="UTF-8" standalone="no"?>
<svg width="45px" height="44px" viewBox="0 0 45 44" version="1.1" xmlns="http://www.w3.org/2000/svg" xmlns:xlink="http://www.w3.org/1999/xlink" xmlns:sketch="http://www.bohemiancoding.com/sketch/ns">
    <!-- Generator: Sketch 3.3.3 (12072) - http://www.bohemiancoding.com/sketch -->
    <title>aboutus</title>
    <desc>Created with Sketch.</desc>
    <defs></defs>
    <g id="金桥梁微信" stroke="none" stroke-width="1" fill="none" fill-rule="evenodd" sketch:type="MSPage">
        <g id="首页" sketch:type="MSArtboardGroup" transform="translate(-123.000000, -560.000000)">
            <g id="内容导航" sketch:type="MSLayerGroup" transform="translate(-1.000000, 543.000000)">
                <g id="最性感的P2P-+-关于我们-+-Imported-Layers" transform="translate(19.000000, 17.000000)" sketch:type="MSShapeGroup">
                    <g id="aboutus" transform="translate(105.000000, 0.000000)">
                        <path d="M40.1728966,32.8083254 C43.1604621,33.9784292 44.9430207,35.4511024 44.9430207,37.0524432 C44.9430207,40.8573015 34.8822621,43.942115 22.4708897,43.942115 C10.0610069,43.942115 0,40.8573015 0,37.0524432 C0,35.4511024 1.78106897,33.9784292 4.76863448,32.8083254 C4.05242069,33.3039888 3.66132414,33.8371725 3.66132414,34.3923254 C3.66132414,36.9769705 12.0816,39.0691613 22.4708897,39.0691613 C32.859931,39.0691613 41.2819448,36.9769705 41.2819448,34.3923254 C41.2819448,33.8371725 40.8906,33.3039888 40.1728966,32.8083254 L40.1728966,32.8083254 Z" id="Imported-Layers" fill="#FF790B"></path>
                        <path d="M29.4068483,24.8599383 L29.4068483,35.5639102 L32.2857931,35.5639102 L33.4355586,28.0609537 L34.5871862,35.5639102 L37.721669,35.5639102 L37.721669,23.7088415 C38.9647862,23.0642693 39.8196621,21.7688303 39.8196621,20.2851108 L39.8196621,14.2202693 C39.8196621,12.0996914 38.0749655,10.3635736 35.9422759,10.3635736 L31.1688,10.3635736 C30.8613724,10.3635736 30.5614552,10.3997363 30.2728966,10.4687293 C30.9117724,11.4394446 31.2822621,12.597021 31.2822621,13.8392034 L31.2822621,20.4403142 C31.2822621,22.1308892 30.5852276,23.715136 29.4068483,24.8599383 Z M33.4435034,1.50254137 C31.1862414,1.50254137 29.3578759,3.32011781 29.3578759,5.56288359 C29.3578759,7.80571108 31.1862414,9.62501543 33.4435034,9.62501543 C35.6993379,9.62501543 37.5274552,7.80571108 37.5274552,5.56288359 C37.5274552,3.32011781 35.6993379,1.50254137 33.4435034,1.50254137 Z" id="Path" fill="#FFC08B"></path>
                        <path d="M22.5385448,0 C24.9946138,0 26.9837379,1.97765498 26.9837379,4.41956241 C26.9837379,6.86005049 24.9946138,8.83912482 22.5385448,8.83912482 C20.0839034,8.83912482 18.0933517,6.86005049 18.0933517,4.41956241 C18.0933517,1.97765498 20.0841517,0 22.5385448,0 Z M29.2332414,20.4403142 L29.2332414,13.8392034 C29.2332414,11.5320112 27.3341172,9.6437756 25.0121172,9.6437756 L19.8191793,9.6437756 C17.4986069,9.6437756 15.5977448,11.5320112 15.5977448,13.8392034 L15.5977448,20.4403142 C15.5977448,22.0556634 16.528531,23.4641571 17.8819448,24.165195 L17.8819448,37.0663899 L21.2923241,37.0663899 L22.5448759,28.9015203 L23.7988552,37.0663899 L26.9301724,37.0663899 L26.9301724,24.174575 C28.2946966,23.4767461 29.2332414,22.0619579 29.2332414,20.4403142 Z" id="Path" fill="#FF790B"></path>
                        <path d="M15.4747862,24.8599383 C14.296469,23.715136 13.5991862,22.1308892 13.5991862,20.4403142 L13.5991862,13.8392034 C13.5991862,12.597021 13.9698621,11.4394446 14.6087379,10.4687293 C14.3199931,10.3997363 14.0203241,10.3635736 13.7126483,10.3635736 L8.93935862,10.3635736 C6.80673103,10.3635736 5.06203448,12.0996914 5.06203448,14.2202693 L5.06203448,20.2851108 C5.06203448,21.7688303 5.91715862,23.0642693 7.16021379,23.7088415 L7.16021379,35.5639102 L10.2930207,35.5639102 L11.4444621,28.0609537 L12.5961517,35.5639102 L15.4747862,35.5639102 L15.4747862,24.8599383 Z M11.438131,1.50254137 C13.6939655,1.50254137 15.5235724,3.32011781 15.5235724,5.56288359 C15.5235724,7.80571108 13.6939655,9.62501543 11.438131,9.62501543 C9.18235862,9.62501543 7.35393103,7.80571108 7.35393103,5.56288359 C7.35393103,3.32011781 9.18235862,1.50254137 11.438131,1.50254137 Z" id="Path" fill="#FFBF8B"></path>
                    </g>
                </g>
            </g>
        </g>
    </g>
</svg>