<?xml version="1.0" encoding="UTF-8" standalone="no"?>
<svg width="35px" height="39px" viewBox="0 0 35 39" version="1.1" xmlns="http://www.w3.org/2000/svg" xmlns:xlink="http://www.w3.org/1999/xlink" xmlns:sketch="http://www.bohemiancoding.com/sketch/ns">
    <!-- Generator: Sketch 3.3.3 (12072) - http://www.bohemiancoding.com/sketch -->
    <title>notice</title>
    <desc>Created with Sketch.</desc>
    <defs></defs>
    <g id="金桥梁微信" stroke="none" stroke-width="1" fill="none" fill-rule="evenodd" sketch:type="MSPage">
        <g id="首页" sketch:type="MSArtboardGroup" transform="translate(-128.000000, -637.000000)" fill="#00C2FD">
            <g id="内容导航" sketch:type="MSLayerGroup" transform="translate(-1.000000, 543.000000)">
                <g id="最新平台动态-+-平台公告-+-Imported-Layers" transform="translate(19.000000, 94.000000)" sketch:type="MSShapeGroup">
                    <g id="notice" transform="translate(110.000000, 0.000000)">
                        <path d="M33.1486769,38.9619037 L1.79426197,38.9619037 C0.807420213,38.9619037 0,38.1368634 0,37.1283805 L0,5.45462561 C0,4.44619024 0.807420213,3.62115 1.79426197,3.62115 L4.79951463,3.62115 L4.79951463,5.45462561 C4.79951463,7.4715439 6.41430851,9.12167195 8.43295213,9.12167195 C10.4515492,9.12167195 12.0663431,7.4715439 12.0663431,5.45462561 L12.0663431,3.66704634 L13.8606051,3.66704634 L13.8606051,5.50052195 C13.8606051,7.51744024 15.4753989,9.16756829 17.4938098,9.16756829 C19.5124069,9.16756829 21.1272473,7.51744024 21.1272473,5.50052195 L21.1272473,3.66704634 L22.9214628,3.66704634 L22.9214628,5.50052195 C22.9214628,7.51744024 24.5363032,9.16756829 26.5547141,9.16756829 C28.5733112,9.16756829 30.1881051,7.51744024 30.1881051,5.50052195 L30.1881051,3.66704634 L33.1935904,3.66704634 C34.1804322,3.66704634 34.9878059,4.49208659 34.9878059,5.50052195 L34.9878059,37.1283805 C34.9428923,38.1368634 34.1355186,38.9619037 33.1486769,38.9619037 L33.1486769,38.9619037 Z M28.3042487,13.9805012 L6.5937766,13.9805012 C5.60693484,13.9805012 4.79951463,14.805589 4.79951463,15.8140244 C4.79951463,16.8224598 5.60693484,17.6475476 6.5937766,17.6475476 L28.3042487,17.6475476 C29.2910904,17.6475476 30.0985106,16.8224598 30.0985106,15.8140244 C30.0985106,14.805589 29.2910904,13.9805012 28.3042487,13.9805012 L28.3042487,13.9805012 Z M28.3042487,21.9103902 L6.5937766,21.9103902 C5.60693484,21.9103902 4.79951463,22.7354305 4.79951463,23.7438659 C4.79951463,24.7523488 5.60693484,25.577389 6.5937766,25.577389 L28.3042487,25.577389 C29.2910904,25.577389 30.0985106,24.7523488 30.0985106,23.7438659 C30.0985106,22.7354305 29.2910904,21.9103902 28.3042487,21.9103902 L28.3042487,21.9103902 Z M28.6182247,29.8402317 L6.3247141,29.8402317 C5.47238032,29.8402317 4.79951463,30.5278207 4.79951463,31.3529085 C4.79951463,32.1779488 5.47238032,32.8655854 6.3247141,32.8655854 L28.6182247,32.8655854 C29.470512,32.8655854 30.1431915,32.1779488 30.1431915,31.3529085 C30.0985106,30.5278207 29.4255984,29.8402317 28.6182247,29.8402317 L28.6182247,29.8402317 Z" id="Imported-Layers"></path>
                        <path d="M26.5099867,7.28814878 C25.5231449,7.28814878 24.7157247,6.46310854 24.7157247,5.45462561 L24.7157247,1.83352317 C24.7157247,0.825087805 25.5231449,0 26.5099867,0 C27.4968285,0 28.3042487,0.825087805 28.3042487,1.83352317 L28.3042487,5.50052195 C28.3042487,6.46310854 27.4968285,7.28814878 26.5099867,7.28814878 L26.5099867,7.28814878 Z" id="Path" fill-opacity="0.389068161"></path>
                        <path d="M17.4490824,7.28814878 C16.4622407,7.28814878 15.6548205,6.46310854 15.6548205,5.45462561 L15.6548205,1.83352317 C15.6548205,0.825087805 16.4622407,0 17.4490824,0 C18.435738,0 19.2431582,0.825087805 19.2431582,1.83352317 L19.2431582,5.50052195 C19.2880718,6.46310854 18.435738,7.28814878 17.4490824,7.28814878 L17.4490824,7.28814878 Z" id="Path" fill-opacity="0.389068161"></path>
                        <path d="M8.43295213,7.28814878 C7.44606383,7.28814878 6.63869016,6.46310854 6.63869016,5.45462561 L6.63869016,1.83352317 C6.63869016,0.825087805 7.44606383,0 8.43295213,0 C9.41979388,0 10.2271676,0.825087805 10.2271676,1.83352317 L10.2271676,5.50052195 C10.2271676,6.46310854 9.41979388,7.28814878 8.43295213,7.28814878 L8.43295213,7.28814878 Z" id="Path" fill-opacity="0.389068161"></path>
                    </g>
                </g>
            </g>
        </g>
    </g>
</svg>