<?xml version="1.0" encoding="UTF-8" standalone="no"?>
<svg width="40px" height="40px" viewBox="0 0 40 40" version="1.1" xmlns="http://www.w3.org/2000/svg" xmlns:xlink="http://www.w3.org/1999/xlink" xmlns:sketch="http://www.bohemiancoding.com/sketch/ns">
    <!-- Generator: Sketch 3.3.3 (12072) - http://www.bohemiancoding.com/sketch -->
    <title>announce</title>
    <desc>Created with Sketch.</desc>
    <defs></defs>
    <g id="金桥梁微信" stroke="none" stroke-width="1" fill="none" fill-rule="evenodd" sketch:type="MSPage">
        <g id="首页" sketch:type="MSArtboardGroup" transform="translate(-309.000000, -637.000000)" fill="#FFC73F">
            <g id="内容导航" sketch:type="MSLayerGroup" transform="translate(-1.000000, 543.000000)">
                <g id="每日发标预告-+-发标预告-+-Imported-Layers" transform="translate(205.000000, 94.000000)" sketch:type="MSShapeGroup">
                    <g id="announce" transform="translate(105.000000, 0.000000)">
                        <path d="M37.4634146,14.360878 C37.807561,14.360878 38.0878537,14.6406341 38.0878537,14.9853171 L38.0878537,37.4634146 C38.0878537,37.8080976 37.807561,38.0878537 37.4634146,38.0878537 L2.4975122,38.0878537 C2.15356098,38.0878537 1.87307317,37.8080976 1.87307317,37.4634146 L1.87307317,14.9853171 C1.87307317,14.6406341 2.15356098,14.360878 2.4975122,14.360878 L37.4634146,14.360878 L37.4634146,14.360878 Z M19.9805854,0 C18.946439,0 18.1072683,0.838585366 18.1072683,1.87307317 C18.1072683,2.07985366 18.148439,2.27590244 18.2109268,2.46073171 L4.40512195,12.4878049 L2.4975122,12.4878049 C1.11834146,12.4878049 0,13.6061463 0,14.9853171 L0,37.4634146 C0,38.8425854 1.11834146,39.9609268 2.4975122,39.9609268 L37.4634146,39.9609268 C38.8425854,39.9609268 39.9609268,38.8425854 39.9609268,37.4634146 L39.9609268,14.9853171 C39.9609268,13.6061463 38.8425854,12.4878049 37.4634146,12.4878049 L35.5558537,12.4878049 L21.75,2.46073171 C21.8124878,2.27536585 21.8536585,2.07985366 21.8536585,1.87307317 C21.8536585,0.838585366 21.0150732,0 19.9805854,0 L19.9805854,0 Z M19.9805854,3.74639024 C20.3538537,3.74639024 20.6997073,3.63395122 20.992,3.44609756 L33.4422439,12.4878049 L6.51926829,12.4878049 L18.9689268,3.44609756 C19.2612195,3.63395122 19.6070732,3.74639024 19.9805854,3.74639024 L19.9805854,3.74639024 Z" id="Fill-1" fill-opacity="0.471014493"></path>
                        <path d="M36.8389756,35.5903415 C36.8389756,36.2795122 36.2795122,36.8389756 35.5903415,36.8389756 L4.37082927,36.8389756 C3.68141463,36.8389756 3.12195122,36.2795122 3.12195122,35.5903415 L3.12195122,16.8586341 C3.12195122,16.1692195 3.68141463,15.6097561 4.37082927,15.6097561 L35.5903415,15.6097561 C36.2795122,15.6097561 36.8389756,16.1692195 36.8389756,16.8586341 L36.8389756,35.5903415 Z M10.0280449,23.4154647 C10.6490416,22.6582494 10.9875798,22.2065312 11.0436699,22.0602965 C11.0997599,21.9140618 11.1157854,21.8209137 11.0917468,21.7808494 C11.0556889,21.7287658 10.8754023,21.7027244 10.5508814,21.7027244 L8.26722756,21.7027244 C8.15905395,21.7027244 8.06490425,21.6616591 7.98477564,21.5795272 C7.90464704,21.4973954 7.86658652,21.3942314 7.87059295,21.2700321 C7.87059295,21.1538456 7.90865347,21.0586943 7.98477564,20.9845753 C8.06089782,20.9104564 8.15504752,20.8733974 8.26722756,20.8733974 L11.0496795,20.8733974 C11.4262839,20.8733974 11.6937091,20.8954325 11.8519631,20.9395032 C12.0102171,20.9835739 12.1173875,21.0446711 12.1734776,21.1227965 C12.2295676,21.2009219 12.2586138,21.2910652 12.260617,21.3932292 C12.2626202,21.4953931 12.2495995,21.5985572 12.2215545,21.7027244 C12.1734773,21.8709944 12.078326,22.0783241 11.9360978,22.3247196 C11.7938695,22.571115 11.512422,22.944709 11.0917468,23.4455128 L10.4727564,24.1786859 C10.5929493,24.375001 10.6590544,24.5222351 10.6710737,24.6203926 C10.683093,24.7185502 10.6810898,24.7756409 10.6650641,24.7916667 L10.5508814,24.9419071 L11.3080929,24.9419071 C11.8850189,24.9419071 12.2105365,25.0701109 12.2846554,25.3265224 C12.3587744,25.582934 12.3938301,25.7972748 12.3898237,25.9695513 C12.3778044,26.1939114 12.3066914,26.5564879 12.1764824,27.0572917 C12.0462734,27.5580955 11.9250807,27.8605764 11.8129006,27.9647436 C11.7007206,28.0689108 11.5765231,28.1340143 11.4403045,28.1600561 C11.3040859,28.1860979 11.1919075,28.1470358 11.103766,28.0428686 C11.0156246,27.9387014 10.977564,27.8305294 10.9895833,27.7183494 C10.9895833,27.6742786 11.0116184,27.6011624 11.0556891,27.4989984 C11.0997598,27.3968344 11.1638618,27.208535 11.2479968,26.9340946 C11.3321318,26.6596541 11.3802083,26.4883818 11.3922276,26.4202724 C11.4042469,26.3521631 11.411258,26.2630214 11.4132612,26.1528446 C11.4152644,26.0426677 11.3862182,25.9595355 11.3261218,25.9034455 C11.254006,25.8393426 11.1318118,25.8072917 10.9595353,25.8072917 L10.2804487,25.8072917 L10.2804487,30.4647436 C10.2804487,30.7451937 10.2423882,30.9585329 10.166266,31.1047676 C10.0901439,31.2510023 9.97896708,31.3601759 9.83273237,31.4322917 C9.68649767,31.5044074 9.46915208,31.5554886 9.1806891,31.5855369 C8.89222612,31.6155851 8.66586621,31.6245994 8.50160256,31.6125801 C8.29326819,31.6005608 8.15004045,31.5354573 8.07191506,31.4172676 C7.99378967,31.2990779 7.96474349,31.1798884 7.98477564,31.0596955 C8.00080136,30.9314897 8.0498794,30.8383416 8.13201122,30.7802484 C8.21414304,30.7221552 8.4074504,30.6870994 8.7119391,30.6750801 C9.0164278,30.6630608 9.20673039,30.6179892 9.28285256,30.5398638 C9.35897474,30.4617384 9.39703526,30.332533 9.39703526,30.1522436 L9.39703526,25.8072917 L8.06891026,25.8072917 C7.94070449,25.8072917 7.83353408,25.7602168 7.74739583,25.6660657 C7.66125758,25.5719146 7.62019229,25.462741 7.62419872,25.3385417 C7.62820515,25.2263616 7.67127363,25.1322119 7.75340545,25.0560897 C7.83553727,24.9799676 7.94070449,24.9419071 8.06891026,24.9419071 L9.9619391,24.9419071 C9.33292955,23.9883766 8.95532916,23.4284864 8.8291266,23.2622196 C8.70292405,23.0959527 8.61278072,22.9727568 8.55869391,22.8926282 C8.5046071,22.8124996 8.47455932,22.7183499 8.46854968,22.6101763 C8.46254003,22.5020027 8.50861329,22.4018434 8.60677083,22.3096955 C8.70492838,22.2175476 8.82411789,22.1915062 8.96434295,22.2315705 C9.02844583,22.2516027 9.10757164,22.3086934 9.20172276,22.4028446 C9.29587387,22.4969957 9.57131182,22.8345324 10.0280449,23.4154647 Z M15.4907853,24.3589744 C15.7752418,24.3549679 15.9214743,24.5592928 15.9294872,24.9719551 L15.9294872,25.8072917 L15.9294872,26.5705128 C15.9214743,26.9391044 15.8653851,27.4529214 15.7612179,28.1119792 C15.6570508,28.7710369 15.3465571,29.3569686 14.8297276,29.8697917 C14.3128981,30.3826147 13.7950747,30.7992772 13.276242,31.1197917 C12.7574093,31.4403061 12.4038471,31.5945513 12.2155449,31.5825321 C12.0272426,31.5705128 11.8940308,31.5244395 11.8159054,31.4443109 C11.7377801,31.3641823 11.7027243,31.2700326 11.7107372,31.161859 C11.7147436,31.0376596 11.7608169,30.9415068 11.8489583,30.8733974 C11.9370998,30.8052881 12.0582925,30.7351766 12.2125401,30.6630609 C12.3667876,30.5909452 12.5981555,30.4627413 12.9066506,30.2784455 C13.2151458,30.0941497 13.5166251,29.8707946 13.8110978,29.6083734 C14.1055704,29.3459522 14.3439494,29.0334553 14.526242,28.6708734 C14.7085346,28.3082915 14.8397432,27.935699 14.9198718,27.5530849 C15.0000004,27.1704708 15.0460737,26.8429501 15.0580929,26.5705128 L15.0580929,25.9334936 C15.0580929,25.4847734 15.0540866,25.1682702 15.0460737,24.9839744 C15.0380609,24.7996786 15.0791262,24.6504413 15.1692708,24.536258 C15.2594155,24.4220747 15.3665859,24.3629808 15.4907853,24.3589744 L15.4907853,24.3589744 Z M15.7792468,21.7508013 L15.4907853,23.0068109 L16.6746795,23.0068109 C17.0312518,23.0068109 17.3327311,23.0528842 17.5791266,23.1450321 C17.8255221,23.2371799 17.9997992,23.3413456 18.1019631,23.4575321 C18.2041271,23.5737185 18.2822513,23.7169463 18.3363381,23.8872196 C18.3904249,24.0574928 18.4174679,24.2528034 18.4174679,24.4731571 L18.4174679,28.4815705 C18.4174679,28.5937506 18.3814106,28.6929082 18.3092949,28.7790465 C18.2371791,28.8651847 18.1390231,28.9162659 18.0148237,28.9322917 C17.8906244,28.9483174 17.7804492,28.9112585 17.6842949,28.8211138 C17.5881405,28.7309691 17.5400641,28.6177891 17.5400641,28.4815705 L17.5400641,24.9419071 C17.5400641,24.6294055 17.5140227,24.3990392 17.4619391,24.2508013 C17.4098555,24.1025634 17.3237185,23.9973961 17.2035256,23.9352965 C17.0833327,23.8731968 16.8449537,23.8421474 16.4883814,23.8421474 L14.6314103,23.8421474 C14.2067286,23.8421474 13.9483178,23.934294 13.8561699,24.1185897 C13.764022,24.3028855 13.7179487,24.5592932 13.7179487,24.8878205 L13.7179487,28.4815705 C13.7179487,28.6057699 13.677885,28.7109371 13.5977564,28.7970753 C13.5176278,28.8832136 13.4184701,28.9272836 13.3002804,28.9292869 C13.1820908,28.9312901 13.0779251,28.8882216 12.9877804,28.8000801 C12.8976358,28.7119387 12.8525641,28.6057699 12.8525641,28.4815705 L12.8525641,24.443109 C12.8525641,24.1706717 12.8956326,23.9342959 12.9817708,23.7339744 C13.0679091,23.5336528 13.2031241,23.3623805 13.3874199,23.2201522 C13.5717157,23.077924 13.8761998,23.0068109 14.3008814,23.0068109 L14.5833333,23.0068109 L14.8778045,21.7508013 L12.9547276,21.7508013 C12.8425475,21.7508013 12.7443914,21.7057296 12.6602564,21.6155849 C12.5761214,21.5254403 12.540064,21.4162667 12.5520833,21.2880609 C12.5600962,21.1838937 12.6031647,21.0967552 12.6812901,21.0266426 C12.7594155,20.9565301 12.8505604,20.9214744 12.9547276,20.9214744 L18.4535256,20.9214744 C18.5857378,20.9214744 18.695913,20.9635412 18.7840545,21.0476763 C18.872196,21.1318113 18.916266,21.2279642 18.916266,21.3361378 C18.9122596,21.4483179 18.8651847,21.5454723 18.7750401,21.6276042 C18.6848954,21.709736 18.577725,21.7508013 18.4535256,21.7508013 L15.7792468,21.7508013 Z M18.7299679,31.5044071 C18.6017622,31.6326128 18.437501,31.6326128 18.2371795,31.5044071 C18.1330123,31.4443106 17.9967957,31.3251211 17.8285256,31.1468349 C17.6602556,30.9685488 17.4238797,30.7351777 17.119391,30.4467147 L16.3922276,29.7676282 C16.2199511,29.6233967 16.0867393,29.4901849 15.9925881,29.3679888 C15.898437,29.2457927 15.8623797,29.1205936 15.8844151,28.9923878 C15.9064504,28.8641821 15.9715539,28.7770435 16.0797276,28.7309696 C16.1879012,28.6848956 16.2920668,28.6718749 16.3922276,28.6919071 C16.5004012,28.7199521 16.6546464,28.8221145 16.8549679,28.9983974 L17.4078526,29.4731571 C17.5641033,29.6133821 17.8014808,29.8417452 18.119992,30.1582532 C18.4385032,30.4747612 18.6668663,30.7311689 18.8050881,30.927484 C18.94331,31.1237991 18.9182702,31.3161048 18.7299679,31.5044071 L18.7299679,31.5044071 Z M22.4078526,22.8986378 C22.207531,23.1830944 21.9411074,23.5376581 21.6085737,23.9623397 C21.27604,24.3870214 21.0096164,24.4951933 20.8092949,24.286859 C20.6089734,24.0785246 20.5108173,23.9142634 20.5148237,23.7940705 C20.5148237,23.6939098 20.5488779,23.5987585 20.6169872,23.5086138 C20.6850965,23.4184691 20.8333322,23.2532063 21.0616987,23.0128205 C21.2900652,22.7724347 21.4753599,22.5410668 21.6175881,22.3187099 C21.7598164,22.0963531 21.8870187,21.8589756 21.9991987,21.6065705 L22.2936699,20.9334936 C22.4338949,20.649037 22.6161848,20.5168268 22.8405449,20.536859 C22.9046478,20.5448718 22.982772,20.5809292 23.0749199,20.6450321 C23.1670678,20.7091349 23.2171474,20.8082926 23.2251603,20.942508 C23.2331731,21.0767234 23.2121397,21.21294 23.1620593,21.3511619 C23.1119789,21.4893837 23.042869,21.6786847 22.9547276,21.9190705 L25.2984776,21.9190705 L25.2984776,20.8733974 C25.2984776,20.7371788 25.341546,20.6199925 25.4276843,20.5218349 C25.5138225,20.4236774 25.6270025,20.3695914 25.7672276,20.3595753 C25.9074526,20.3495592 26.0326517,20.3956325 26.1428285,20.4977965 C26.2530054,20.5999604 26.3080929,20.7231563 26.3080929,20.8673878 L26.3080929,21.9190705 L30.1001603,21.9190705 C30.2363789,21.9190705 30.3545668,21.9661454 30.4547276,22.0602965 C30.5548883,22.1544476 30.6059695,22.2686291 30.6079728,22.4028446 C30.609976,22.53706 30.5608979,22.6532447 30.4607372,22.7514022 C30.3605764,22.8495598 30.2403853,22.8986378 30.1001603,22.8986378 L26.3080929,22.8986378 L26.3080929,24.6594551 L30.7311699,24.6594551 C30.8593756,24.6594551 30.9735572,24.70653 31.0737179,24.8006811 C31.1738787,24.8948322 31.2249599,25.0090138 31.2269631,25.1432292 C31.2289664,25.2774446 31.1808899,25.3936293 31.0827324,25.4917869 C30.9845748,25.5899444 30.8673885,25.6390224 30.7311699,25.6390224 L20.7431891,25.6390224 C20.6069705,25.6390224 20.4907857,25.5919476 20.3946314,25.4977965 C20.2984771,25.4036454 20.2504006,25.2884622 20.2504006,25.1522436 C20.2504006,25.016025 20.2984771,24.8988386 20.3946314,24.8006811 C20.4907857,24.7025235 20.6069705,24.6534455 20.7431891,24.6534455 L25.2984776,24.6594551 L25.2984776,22.8986378 L22.4078526,22.8986378 Z M29.9979968,29.8036859 C29.9739582,30.1201939 29.9058499,30.4617369 29.7936699,30.8283253 C29.6814898,31.1949137 29.250805,31.3782051 28.5016026,31.3782051 L22.8585737,31.3782051 C22.6462329,31.3782051 22.4008427,31.3301287 22.1223958,31.2339744 C21.8439489,31.13782 21.64964,30.9625413 21.5394631,30.708133 C21.4292863,30.4537247 21.3741987,30.2343759 21.3741987,30.0500801 L21.3741987,28.6258013 C21.3741987,28.3653833 21.4132608,28.1410266 21.4913862,27.9527244 C21.5695116,27.7644221 21.6997186,27.5921482 21.8820112,27.4358974 C22.0643038,27.2796467 22.3998373,27.2015224 22.8886218,27.2015224 L28.5496795,27.2015224 C28.7620203,27.2015224 29.0034041,27.2516021 29.2738381,27.3517628 C29.5442722,27.4519236 29.7325716,27.6392214 29.838742,27.9136619 C29.9449124,28.1881023 29.9979968,28.4475148 29.9979968,28.6919071 L29.9979968,29.8036859 Z M28.1229968,30.4467147 C28.2872604,30.4346955 28.4435089,30.4076525 28.5917468,30.3655849 C28.7399847,30.3235174 28.8451519,30.2323725 28.9072516,30.0921474 C28.9693513,29.9519224 29.0004006,29.763623 29.0004006,29.5272436 L29.0004006,29.0284455 C29.0004006,28.828124 28.9613385,28.6308103 28.8832131,28.4364984 C28.8050878,28.2421865 28.5556912,28.1450321 28.135016,28.1450321 L23.2011218,28.1450321 C22.7724338,28.1450321 22.5250404,28.2401833 22.4589343,28.4304888 C22.3928282,28.6207942 22.3597756,28.808092 22.3597756,28.9923878 L22.3597756,29.6233974 C22.3597756,29.8918283 22.4238776,30.0961531 22.5520833,30.2363782 C22.6802891,30.3766033 22.9026426,30.4467147 23.2191506,30.4467147 L28.1229968,30.4467147 Z" id="Fill-2"></path>
                    </g>
                </g>
            </g>
        </g>
    </g>
</svg>