<?xml version="1.0" encoding="utf-8"?>
<!-- Generator: Adobe Illustrator 19.0.0, SVG Export Plug-In . SVG Version: 6.00 Build 0)  -->
<svg version="1.1" id="图层_1" xmlns="http://www.w3.org/2000/svg" xmlns:xlink="http://www.w3.org/1999/xlink" x="0px" y="0px"
	 viewBox="-23 164 912.8 233.1" style="enable-background:new -23 164 912.8 233.1;" xml:space="preserve">
<style type="text/css">
	.st0{fill:#2F2F2F;}
	.st1{fill:#FF790B;}
</style>
<g>
	<path class="st0" d="M775.4,389.5c-5.6,2.1-17,4.1-31.5,4.1c-37.3,0-62.3-18.1-62.3-49.5c0-33.4,28.7-51.7,65.8-51.7
		c15.4,0,24.9,2.5,28.5,3.9l-4.4,12.2c-5.6-1.9-13.5-3.6-23.5-3.6c-25.9,0-45.2,12.9-45.2,38.5c0,24.2,17.2,37.7,44.8,37.7
		c9.1,0,18.4-1.4,24.2-3.5L775.4,389.5L775.4,389.5z"/>
	<path class="st0" d="M889,392.2h-20.5l-35.2-46.1c-8-10.7-16.1-22.3-22.2-33.3l-0.7,0.1c1,12.5,1.4,25.2,1.4,42.4v36.8h-18.7v-98.4
		h22.1l35,45.5c8.4,10.8,15.9,22.1,21.7,32.5l0.5-0.1c-1.6-13.4-2.1-26-2.1-41.7v-36.3H889V392.2L889,392.2z"/>
	<path class="st0" d="M542.3,176.8l-10.2,16.9h78.7l-10.2-16.9H542.3L542.3,176.8z M620,206.6l-4.6-5.4H579v23.7h43.9v7.6H579
		l-0.1,33.6h21.8l2.8-27.2h15.7l-6.6,27h17c0,0,0-0.1,0,1.3c0,4.9-2,7-6.4,7c-5.2,0-99.5,0.1-103.6,0.1c-4.7,0-6.2-1.7-6.2-6.8
		c0-1.7,0-1.3,0-1.3h17.7l-6.4-27.2h15.7l2.7,27.2h21l0.1-33.7h-43.9v-7.6h43.9v-23.8H527l-3.6,4.7h-12.1l19.3-37.5h80.9l19.8,38.1
		L620,206.6L620,206.6z"/>
	<path class="st0" d="M760.4,195.4h-11l11.8,23.4h-13.1l-15.8-23.4h-18.4l-13.2,23.4h-14.3l11-23.4h-10.6v-7.6H700l4-11.2h-14.4
		v-8.3h67.9c0,5.7-3.2,8.3-7.6,8.3h-26.8l-5.3,11.2h42.6V195.4L760.4,195.4z"/>
	<path class="st0" d="M684.1,190.4h-6.8v9.7h6.8v8.3h-6.8c0,0-0.1,51.9-0.1,57.5c0,5.5-4.1,8.4-7.9,8.4c-3.8,0-5,0-5,0l0.1-65.9
		h-4.6c-1.4,0-1.7,0.4-2,0.7c-0.4,0.4-0.4,4.1-0.6,5.6l-4.8,59.5h-9.9l1.5-63.5c0.6-7.9,1.6-10.7,9.4-10.7h11.1v-9.7h-24.3V182h24.3
		v-13.7h12.8V182h6.8V190.4L684.1,190.4z"/>
	<polygon class="st0" points="706.7,224.6 704.1,274.4 691.4,274.4 691.4,224.6 	"/>
	<polygon class="st0" points="742.8,274.3 740.2,224.6 756.2,224.6 756.2,274.3 	"/>
	<path class="st0" d="M887.5,206.6h-2.3c0.7,7.2-0.1,10.8-9.2,10.1h-5.4v-13.1l-18.2-3.3v-10.6l18.2,3.3v-16.3l-31.1-0.1l-5.4,14.2
		l10.2,1.6v11.1l-14.1-2.6l-5.5,14.9h-13.9l5.1-18l-11.4-2v-11.3l14.2,2.4l2.8-10.4h-19v-8.3h83v27.3h2L887.5,206.6L887.5,206.6z"/>
	<polygon class="st0" points="770.1,168.6 796.5,171.4 796.4,179.7 770.1,177 	"/>
	<polygon class="st0" points="796.4,181.9 796.4,190.3 770.1,187.6 770.1,179.2 	"/>
	<polygon class="st0" points="779.7,192.2 795.1,192.2 786.7,216.7 771.9,216.7 	"/>
	<path class="st0" d="M836.9,219.6v6.8h53.3v7.6h-10.7l10.3,40.3h-11.6l-15-40.3h-26.4l-0.1,30.9c0,6.7-2.7,9.4-10.1,9.4h-4V234
		h-25.3l-15.4,40.3h-12.2l10.8-40.3H770v-7.6h52.6v-6.8L836.9,219.6L836.9,219.6z"/>
	<path class="st1" d="M286.4,182.5c-41.8,0-74.7,29.3-74.7,98.2c0,68.8,32.4,98.2,74.2,98.2s77.3-36.4,77.3-98.2
		C363.1,218.9,328.2,182.5,286.4,182.5 M382.2,357.1l-7,8.2l19.9,31.9h-28.8l-16.7-14.9c-11.8,5-22.4,8.8-31.7,11.2
		c-9.3,2.4-19.5,3.6-30.5,3.6c-37.2,0-66.2-9.3-86.7-28c-21.5-19.7-32.3-48.7-32.3-86.9c0-38.9,9.8-68.2,29.4-88.2s49.6-30,89.8-30
		c39.1,0,68.7,10.7,89.2,32.1c17.6,18.4,26.3,42.3,26.3,71.7c0,21.2-0.9,36.7-2.8,46.6C397.5,329.3,391.5,343.6,382.2,357.1"/>
	<path class="st1" d="M430.6,332.3c1.1,5.2,3.7,13.5,7.4,20.1c8.8,16.6,23.5,26,44.5,32.9c16.8,5.6,38.7,8.3,65.6,8.3h47.3v-16.8
		h-37.1c-12.7,0-32-1.6-38.7-2.9c-9.5-1.8-25.5-5.4-33.5-13.5c-9.4-7.6-11.3-21.1-12.2-26c-1-5.5-1.4-18.4-1.4-24.8V169.4h-43.4
		v142.2C428.9,320.2,429.5,327.1,430.6,332.3"/>
	<path class="st1" d="M141.7,331.2c-1.1,5.2-3.7,13.5-7.4,20.1c-8.8,16.6-23.5,26-44.5,32.9c-16.8,5.6-38.7,8.3-65.6,8.3H-23v-16.8
		h37.1c12.7,0,32-1.6,38.7-2.9c9.5-1.8,25.5-5.4,33.5-13.5c9.4-7.6,11.3-21.1,12.2-26c1-5.5,1.4-18.4,1.4-24.8V168.3h43.4v142.2
		C143.4,319.1,142.8,326,141.7,331.2"/>
	<path class="st0" d="M643.2,372.2c5.9,0,10.7,4.8,10.7,10.7s-4.8,10.7-10.7,10.7s-10.7-4.8-10.7-10.7S637.3,372.2,643.2,372.2"/>
</g>
</svg>
